<?xml version="1.0" encoding="UTF-8" standalone="no"?><!DOCTYPE svg PUBLIC "-//W3C//DTD SVG 1.1//EN" "http://www.w3.org/Graphics/SVG/1.1/DTD/svg11.dtd"><svg width="100%" height="100%" viewBox="0 0 138892 78125" version="1.1" xmlns="http://www.w3.org/2000/svg" xmlns:xlink="http://www.w3.org/1999/xlink" xml:space="preserve" xmlns:serif="http://www.serif.com/" style="fill-rule:evenodd;clip-rule:evenodd;stroke-linejoin:round;stroke-miterlimit:2;"><g><g><g><g><g id="g1750"><g id="g1663"><path id="path826" d="M62047.5,25336.5c-10121.8,991.092 -17635.2,10135.5 -16644.2,20257.3c49.079,479.858 116.859,957.621 203.196,1432.2c-291.112,-9686.71 7059.83,-18050.7 16703.7,-19005.8c9578.17,-934.567 18372.6,5736.38 20054.2,15211.9c-5.762,-417.709 -25.625,-835.121 -59.562,-1251.49c-0,-0.017 -0.021,-0.017 -0.021,-0.033c-991.021,-10121.8 -10135.5,-17635.2 -20257.3,-16644.2l-0.05,-0l-0.017,0.104l0.038,0.008Z" style="fill:#fff;stroke:#fff;stroke-width:416.67px;"/><path id="path839" d="M101099,28508l-17232.5,8988.25l-1733.5,-4741.08l18966,-4247.21l0.004,0.042Z" style="fill:#fff;stroke:#fff;stroke-width:416.67px;"/><path id="path841" d="M79232.1,8167.33l-5665,18591.8l-4596.88,-2086.03l5130.96,-8252.92l5130.92,-8252.92l0,0.025Z" style="fill:#fff;stroke:#fff;stroke-width:416.67px;"/><path id="path843" d="M41577,11721.9l6653.38,7083.08l6653.38,7083.04l-4097.05,2949.08l-9209.67,-17115.2l-0.033,-0.037Z" style="fill:#fff;stroke:#fff;stroke-width:416.67px;"/><path id="path845" d="M23433.8,35837.7l9712.25,330.037l9712.25,330.017l-412.584,2490.09l-412.587,2490.07l-18599.3,-5640.21l0.005,-0Z" style="fill:#fff;stroke:#fff;stroke-width:416.67px;"/><path id="path847" d="M39633.8,26518.1l4377,1962.99l4377.04,1962.98l-3204.7,3900.35l-5549.33,-7826.33l-0.004,0.012Z" style="fill:#fff;stroke:#fff;stroke-width:416.67px;"/><path id="path849" d="M61035.4,14998.8l3413.96,8966.12l-5024.04,491.909l1610.07,-9458.04l0.013,0.008Z" style="fill:#fff;stroke:#fff;stroke-width:416.67px;"/><path id="path851" d="M84173.3,22673.5l-2108.3,4308.92l-2108.3,4308.92l-3790.98,-3333.39l8007.58,-5284.46l-0.013,0.012Z" style="fill:#fff;stroke:#fff;stroke-width:416.67px;"/></g></g><g><g id="g1501"><g id="g1233"><path id="path1214" d="M106358,30606.2c1124.51,1082.33 1637.83,2118.73 1811.34,3129.04c213.313,1242.17 -88.404,2449.48 -416.321,3653.58c-327.916,1204.1 -682.083,2404.58 -559.983,3631.56c70.471,708.055 302.188,1423.77 785.762,2150.87c-1186.28,-1123.72 -1658.89,-2205.15 -1765.03,-3271.91c-119.929,-1205.05 229.583,-2395.42 557.796,-3600.62c328.229,-1205.23 635.329,-2426.34 418.142,-3691.04c-112.571,-655.575 -368.509,-1321.62 -831.7,-2001.48Z" style="fill:#fff;fill-rule:nonzero;stroke:#fff;stroke-width:416.67px;"/><path id="path1229" d="M108646,31545.2c1124.53,1082.31 1637.85,2118.73 1811.35,3129.05c213.3,1242.17 -88.4,2449.48 -416.317,3653.57c-327.916,1204.1 -682.083,2404.58 -559.983,3631.56c70.45,708.037 302.171,1423.75 785.763,2150.85c-1186.3,-1123.7 -1658.89,-2205.14 -1765.05,-3271.89c-119.913,-1205.05 229.583,-2395.42 557.812,-3600.62c328.229,-1205.23 635.313,-2426.34 418.142,-3691.04c-112.588,-655.571 -368.509,-1321.63 -831.721,-2001.48Z" style="fill:#fff;fill-rule:nonzero;stroke:#fff;stroke-width:416.67px;"/></g><g id="g1477"><g id="g1271"><path id="path1251" d="M117399,47454.6c-1098.25,0.188 -1990.02,887.55 -1995.7,1985.76c647.729,-383.35 1057.69,-1069.46 1792.02,-1089.45c719.983,-0.067 1303.66,583.558 1303.68,1303.53c-0.296,388.404 -173.925,756.408 -473.367,1003.75l328.609,545.054c641.562,-349.621 1040.83,-1021.84 1040.92,-1752.48c0.054,-1102.47 -893.696,-1996.22 -1996.16,-1996.16Z" style="fill:#fff;stroke:#fff;stroke-width:416.67px;"/><path id="path1261" d="M114638,53658.8c2549.03,-2191.77 3342.88,-2913.35 3445.38,-2994.57c54.896,-43.508 329.808,459.288 329.808,459.288l-3775.19,2535.28Z" style="fill:#fff;fill-rule:nonzero;stroke:#fff;stroke-width:416.67px;stroke-linejoin:miter;stroke-miterlimit:4;"/></g><path id="path1265" d="M104439,46598.8l11230.3,0" style="fill:none;fill-rule:nonzero;stroke:#fff;stroke-width:416.67px;stroke-linejoin:miter;stroke-miterlimit:4;"/><path id="path1267" d="M112311,56239.2c927.604,-2981.21 2572.97,-5790.08 1632.48,-9017.92l1682.4,17.829c171.496,3513.42 -1866.92,6122.83 -3314.88,9000.08l0,0.004Z" style="fill:#fff;fill-rule:nonzero;stroke:#fff;stroke-width:416.67px;stroke-linejoin:miter;stroke-miterlimit:4;"/><path id="path1273" d="M104379,57267.1l12750.8,0l-2047.36,615.763l-9661.71,-0l-1041.73,-615.763l-0.029,0Z" style="fill:#fff;fill-rule:nonzero;stroke:#fff;stroke-width:416.67px;"/></g></g><g><path d="M22041.4,39213.6c-115.251,-0 -238.733,3.658 -370.448,10.976c-281.723,14.635 -491.644,50.308 -629.762,107.018c-138.117,56.711 -251.996,154.582 -341.635,293.615c-82.322,128.056 -145.435,301.846 -189.34,521.371l-63.114,-5.488l49.394,-1012.56l3712.71,-0l49.393,1012.56l-63.114,5.488c-49.393,-254.283 -126.684,-446.825 -231.873,-577.625c-105.189,-130.8 -258.398,-224.555 -459.63,-281.266c-170.131,-49.393 -458.257,-74.089 -864.378,-74.089l-0,2798.94c-0,186.596 10.519,325.171 31.556,415.725c21.038,90.554 59.912,165.101 116.623,223.641c51.222,53.052 109.305,91.468 174.248,115.25c64.943,23.782 149.551,38.417 253.825,43.905l0,63.114l-1753.45,-0l0,-63.114c106.104,-5.488 191.627,-20.123 256.57,-43.905c64.943,-23.782 123.025,-62.198 174.248,-115.25c56.71,-58.54 95.584,-132.63 116.622,-222.269c21.038,-89.639 31.557,-228.672 31.557,-417.097l-0,-2798.94Z" style="fill:#fff;fill-rule:nonzero;stroke:#fff;stroke-width:416.67px;"/><path d="M25594.9,40871l1948.28,0l-0,-880.843c-0,-188.425 -10.519,-327.457 -31.557,-417.097c-21.038,-89.639 -59.912,-163.728 -116.623,-222.268c-51.222,-53.052 -109.305,-91.469 -174.247,-115.251c-64.943,-23.782 -150.466,-38.417 -256.57,-43.905l0,-63.113l1753.45,-0l0,63.113c-104.274,5.488 -188.883,20.123 -253.825,43.905c-64.943,23.782 -123.026,62.199 -174.248,115.251c-56.711,58.54 -95.585,133.086 -116.623,223.64c-21.037,90.554 -31.556,229.129 -31.556,415.725l-0,2022.37c-0,186.596 10.519,324.714 31.556,414.353c21.038,89.639 59.912,164.644 116.623,225.013c51.222,51.222 109.305,89.182 174.248,113.878c64.942,24.697 149.551,39.789 253.825,45.277l0,63.114l-1753.45,-0l0,-63.114c106.104,-5.488 191.627,-20.58 256.57,-45.277c64.942,-24.696 123.025,-62.656 174.247,-113.878c56.711,-58.54 95.585,-132.63 116.623,-222.269c21.038,-89.639 31.557,-228.672 31.557,-417.097l-0,-1012.56l-1948.28,0l-0,1012.56c-0,186.596 10.519,325.171 31.556,415.725c21.038,90.554 59.912,165.101 116.623,223.641c49.393,51.222 106.561,89.182 171.504,113.878c64.942,24.697 150.465,39.789 256.569,45.277l0,63.114l-1753.45,-0l0,-63.114c106.104,-5.488 191.627,-20.58 256.57,-45.277c64.942,-24.696 122.11,-62.656 171.503,-113.878c58.54,-58.54 97.872,-132.63 117.995,-222.269c20.123,-89.639 30.185,-228.672 30.185,-417.097l-0,-2022.37c-0,-188.425 -10.062,-327.457 -30.185,-417.097c-20.123,-89.639 -59.455,-163.728 -117.995,-222.268c-49.393,-53.052 -107.018,-91.469 -172.875,-115.251c-65.858,-23.782 -150.924,-38.417 -255.198,-43.905l0,-63.113l1753.45,-0l0,63.113c-104.274,5.488 -188.883,20.123 -253.825,43.905c-64.943,23.782 -123.026,62.199 -174.248,115.251c-56.711,58.54 -95.585,133.086 -116.623,223.64c-21.037,90.554 -31.556,229.129 -31.556,415.725l-0,880.843Z" style="fill:#fff;fill-rule:nonzero;stroke:#fff;stroke-width:416.67px;"/><path d="M31939.2,39128.5l46.649,905.539l-63.114,2.744c-23.782,-153.667 -63.113,-280.808 -117.994,-381.424c-54.881,-100.615 -134.459,-189.34 -238.733,-266.174c-85.981,-64.028 -187.511,-109.305 -304.591,-135.831c-117.08,-26.525 -272.577,-39.788 -466.49,-39.788l-628.39,-0l0,1646.43l164.644,0c166.473,0 291.785,-10.976 375.936,-32.929c84.151,-21.952 152.753,-61.284 205.804,-117.994c51.223,-53.052 89.182,-115.708 113.879,-187.968c24.696,-72.26 45.277,-178.821 61.741,-319.683l63.114,2.744l-10.977,1470.82l-63.113,-0c-16.464,-140.862 -40.704,-254.283 -72.718,-340.264c-32.014,-85.98 -76.376,-159.155 -133.086,-219.524c-54.882,-58.54 -126.227,-101.531 -214.037,-128.971c-87.81,-27.441 -199.402,-41.161 -334.775,-41.161l-156.412,0l0,628.39c0,250.624 6.403,433.104 19.209,547.439c12.805,114.336 37.502,209.921 74.089,286.755c62.199,131.714 156.869,228.214 284.01,289.498c127.142,61.284 294.987,91.926 503.535,91.926c219.525,-0 403.377,-27.898 551.556,-83.694c148.179,-55.796 268.918,-142.234 362.216,-259.314c65.857,-78.663 119.367,-168.302 160.528,-268.917c41.16,-100.616 79.12,-233.245 113.878,-397.889l63.113,2.744l-35.672,1092.14l-3273.66,-0l-0,-63.114c104.274,-5.488 188.883,-20.123 253.825,-43.905c64.943,-23.782 123.026,-62.198 174.248,-115.25c56.711,-58.54 95.585,-133.087 116.623,-223.641c21.037,-90.554 31.556,-229.129 31.556,-415.725l0,-2022.37c0,-186.596 -10.519,-325.171 -31.556,-415.725c-21.038,-90.554 -59.912,-165.1 -116.623,-223.64c-49.393,-53.052 -106.561,-91.469 -171.504,-115.251c-64.942,-23.782 -150.465,-38.417 -256.569,-43.905l-0,-63.113l2949.86,-0Z" style="fill:#fff;fill-rule:nonzero;stroke:#fff;stroke-width:416.67px;"/><g><path d="M33066.3,51771.7c-0,-546.636 117.06,-1053.43 351.18,-1520.37c234.12,-466.945 575.545,-874.508 1024.28,-1222.69c334.921,-257.034 695.857,-454.7 1082.81,-592.997c386.949,-138.298 777.149,-207.447 1170.6,-207.447c500.757,0 985.255,109.82 1453.5,329.46c468.241,219.64 877.951,529.59 1229.13,929.85c572.294,650.74 858.44,1391 858.44,2220.79c0,416.519 -74.788,818.379 -224.365,1205.58c-149.576,387.202 -367.438,740.262 -653.585,1059.18c-351.18,396.957 -766.581,704.443 -1246.2,922.457c-479.621,218.015 -981.191,327.022 -1504.71,327.022c-517.016,-0 -1011.27,-105.756 -1482.76,-317.267c-471.492,-211.51 -877.951,-510.867 -1219.38,-898.07c-269.888,-302.608 -477.182,-646.713 -621.881,-1032.32c-144.699,-385.603 -217.049,-786.663 -217.049,-1203.18Zm1180.36,73.239c0,943.695 256.882,1739.31 770.646,2386.85c230.868,289.602 475.556,500.3 734.064,632.094c258.508,131.794 556.848,197.691 895.022,197.691c341.425,0 641.391,-65.084 899.899,-195.252c258.508,-130.169 504.821,-341.68 738.942,-634.533c513.763,-650.791 770.645,-1452.91 770.645,-2406.36c-0,-523.926 -70.724,-1019.36 -212.171,-1486.31c-141.448,-466.945 -340.613,-863.127 -597.495,-1188.55c-208.106,-266.79 -439.788,-461.204 -695.044,-583.243c-255.256,-122.039 -556.848,-183.059 -904.776,-183.059c-344.677,0 -643.018,60.194 -895.022,180.582c-252.004,120.388 -485.311,315.628 -699.922,585.72c-256.881,322.169 -455.233,717.539 -595.055,1186.11c-139.822,468.571 -209.733,971.322 -209.733,1508.25Z" style="fill:#fff;fill-rule:nonzero;stroke:#fff;stroke-width:416.67px;"/><path d="M43987,48398.9l-0,112.182c-185.345,9.755 -336.548,35.769 -453.608,78.04c-117.06,42.272 -219.487,110.557 -307.283,204.856c-107.305,110.556 -178.028,247.126 -212.171,409.71c-34.142,162.583 -51.214,442.227 -51.214,838.93l0,2760.67c0,448.73 17.072,773.084 51.214,973.061c34.143,199.978 103.241,384.51 207.294,553.597c156.08,256.882 348.741,443.04 577.984,558.474c229.243,115.434 517.828,173.151 865.757,173.151c338.173,0 660.901,-51.214 968.184,-153.641c307.283,-102.428 563.351,-244.688 768.207,-426.782c126.815,-113.808 220.3,-237.371 280.456,-370.69c60.156,-133.318 99.989,-302.405 119.499,-507.26c13.006,-133.319 19.51,-448.73 19.51,-946.236l-0,-2726.52c-0,-334.922 -18.697,-582.049 -56.091,-741.381c-37.395,-159.332 -106.493,-291.024 -207.294,-395.077c-91.047,-94.299 -194.288,-162.584 -309.722,-204.856c-115.434,-42.271 -265.824,-68.285 -451.169,-78.04l0,-112.182l2248.53,-0l-0,112.182c-185.345,9.755 -335.735,35.769 -451.169,78.04c-115.434,42.272 -218.675,110.557 -309.721,204.856c-100.802,104.053 -169.9,236.558 -207.294,397.516c-37.394,160.958 -56.092,407.271 -56.092,738.942l0,3077.7c0,455.233 -34.955,790.968 -104.866,1007.2c-69.911,216.236 -208.92,413.775 -417.026,592.616c-474.744,409.711 -1152.72,614.566 -2033.92,614.566c-920.222,-0 -1598.19,-193.475 -2033.92,-580.423c-282.896,-247.127 -451.982,-572.294 -507.261,-975.501c-19.51,-143.073 -29.265,-401.581 -29.265,-775.522l0,-2960.64c0,-334.922 -17.884,-582.049 -53.652,-741.381c-35.769,-159.332 -105.679,-291.024 -209.733,-395.077c-87.795,-94.299 -189.409,-162.584 -304.844,-204.856c-115.434,-42.271 -267.449,-68.285 -456.046,-78.04l-0,-112.182l3116.72,-0Z" style="fill:#fff;fill-rule:nonzero;stroke:#fff;stroke-width:416.67px;"/><path d="M49683.9,49281.7l-0,4243.43c-0,334.922 18.697,582.048 56.091,741.38c37.394,159.332 106.492,291.025 207.294,395.078c91.047,94.298 194.287,162.583 309.721,204.855c115.435,42.272 265.824,68.285 451.169,78.04l0,112.183l-2248.53,-0l-0,-112.183c185.345,-9.755 335.734,-35.768 451.169,-78.04c115.434,-42.272 218.674,-110.557 309.721,-204.855c100.802,-104.053 169.9,-236.559 207.294,-397.516c37.394,-160.958 56.091,-407.272 56.091,-738.942l0,-3599.6c0,-328.418 -18.697,-573.106 -56.091,-734.064c-37.394,-160.958 -106.492,-293.463 -207.294,-397.516c-87.795,-94.299 -189.41,-162.584 -304.844,-204.856c-115.434,-42.271 -267.45,-68.285 -456.046,-78.04l-0,-112.182l1877.84,-0l3960.53,5053.09l0,-3521.56c0,-334.922 -18.697,-582.049 -56.091,-741.381c-37.394,-159.332 -106.492,-291.024 -207.294,-395.077c-91.047,-94.299 -194.287,-162.584 -309.722,-204.856c-115.434,-42.271 -265.823,-68.285 -451.168,-78.04l-0,-112.182l2248.53,-0l0,112.182c-325.167,0 -578.797,94.299 -760.89,282.896c-100.802,104.053 -169.9,236.558 -207.294,397.516c-37.394,160.958 -56.091,405.646 -56.091,734.064l-0,5131.13l-219.488,-0l-4594.61,-5774.96Z" style="fill:#fff;fill-rule:nonzero;stroke:#fff;stroke-width:416.67px;"/><path d="M58639,48550.1c-204.855,0 -424.343,6.504 -658.463,19.51c-500.756,26.014 -873.885,89.421 -1119.39,190.223c-245.501,100.802 -447.918,274.766 -607.249,521.893c-146.326,227.617 -258.508,536.525 -336.548,926.725l-112.183,-9.755l87.795,-1799.8l6599.26,-0l87.795,1799.8l-112.182,9.755c-87.795,-451.982 -225.178,-794.22 -412.149,-1026.71c-186.971,-232.494 -459.298,-399.142 -816.982,-499.944c-302.405,-87.795 -814.543,-131.693 -1536.41,-131.693l-0,4975.05c-0,331.67 18.697,577.984 56.091,738.942c37.394,160.957 106.492,293.463 207.294,397.516c91.047,94.298 194.287,162.583 309.721,204.855c115.435,42.272 265.824,68.285 451.169,78.04l0,112.183l-3116.72,-0l0,-112.183c188.597,-9.755 340.612,-35.768 456.047,-78.04c115.434,-42.272 218.674,-110.557 309.721,-204.855c100.802,-104.053 169.9,-235.746 207.294,-395.078c37.394,-159.332 56.091,-406.458 56.091,-741.38l0,-4975.05Z" style="fill:#fff;fill-rule:nonzero;stroke:#fff;stroke-width:416.67px;"/><path d="M64955.4,51798.5l-0,1726.64c-0,331.67 18.697,577.984 56.091,738.942c37.394,160.957 106.492,293.463 207.294,397.516c87.795,91.047 189.41,158.519 304.844,202.416c115.434,43.898 267.45,70.724 456.046,80.479l0,112.183l-3116.72,-0l0,-112.183c188.597,-9.755 340.613,-36.581 456.047,-80.479c115.434,-43.897 217.049,-111.369 304.844,-202.416c104.053,-104.053 173.964,-235.746 209.732,-395.078c35.769,-159.332 53.653,-406.458 53.653,-741.38l-0,-3594.72c-0,-334.922 -17.884,-582.049 -53.653,-741.381c-35.768,-159.332 -105.679,-291.024 -209.732,-395.077c-87.795,-94.299 -190.223,-162.584 -307.283,-204.856c-117.06,-42.271 -268.263,-68.285 -453.608,-78.04l0,-112.182l2350.96,-0c393.452,-0 651.96,1.626 775.523,4.877c504.009,22.762 899.087,91.047 1185.23,204.855c321.916,130.067 571.481,324.354 748.697,582.862c177.216,258.508 265.824,558.474 265.824,899.899c-0,507.26 -191.848,913.719 -575.545,1219.38c-117.06,91.046 -246.314,165.835 -387.762,224.365c-141.447,58.53 -330.857,113.808 -568.229,165.835c195.1,81.292 339.8,165.835 434.098,253.63c74.788,68.285 143.073,153.641 204.855,256.069c61.782,102.428 154.454,283.708 278.018,543.842c289.398,595.055 508.073,1029.96 656.024,1304.73c147.951,274.766 272.327,473.931 373.129,597.494c81.291,100.802 160.144,170.713 236.559,209.733c76.414,39.02 181.28,65.033 314.598,78.04l0,112.183l-1619.33,-0c-81.292,-178.842 -133.319,-292.65 -156.08,-341.426l-341.426,-775.522c-204.855,-464.989 -411.336,-876.325 -619.442,-1234.01c-208.107,-354.431 -398.33,-596.681 -570.668,-726.747c-87.795,-65.034 -182.094,-111.37 -282.895,-139.009c-100.802,-27.639 -224.365,-41.459 -370.691,-41.459l-238.997,0Zm-0,-107.305l185.345,-0c403.207,-0 691.792,-22.762 865.757,-68.285c173.964,-45.523 337.36,-139.822 490.189,-282.895c341.425,-325.167 512.137,-728.374 512.137,-1209.62c0,-256.882 -49.588,-498.318 -148.763,-724.309c-99.176,-225.991 -236.559,-412.149 -412.149,-558.474c-136.57,-110.557 -299.154,-187.784 -487.751,-231.681c-188.596,-43.898 -456.859,-65.847 -804.788,-65.847l-199.977,0l-0,3141.11Z" style="fill:#fff;fill-rule:nonzero;stroke:#fff;stroke-width:416.67px;"/><path d="M70920.6,55056.7l0,-112.183c185.345,-9.755 336.548,-35.768 453.608,-78.04c117.06,-42.272 221.114,-110.557 312.16,-204.855c100.802,-104.053 169.087,-235.746 204.855,-395.078c35.769,-159.332 53.653,-406.458 53.653,-741.38l4.877,-951.113c0,-136.57 -27.639,-287.773 -82.917,-453.608c-61.782,-191.848 -188.597,-432.472 -380.445,-721.87l-1263.27,-1897.35l-224.365,-341.425c-165.835,-247.127 -328.418,-416.213 -487.75,-507.26c-81.292,-48.775 -162.583,-82.918 -243.875,-102.428c-81.292,-19.51 -195.1,-32.516 -341.425,-39.02l-0,-112.182l3180.13,-0l0,112.182c-269.888,16.259 -442.226,40.646 -517.015,73.163c-182.093,78.04 -273.14,219.488 -273.14,424.343c0,74.788 20.323,159.331 60.969,253.63c40.646,94.298 106.492,212.984 197.539,356.057l1321.8,2068.06l1131.58,-1765.65l126.815,-199.978c120.312,-188.597 180.468,-373.942 180.468,-556.035c0,-208.107 -66.659,-369.065 -199.978,-482.873c-133.318,-113.808 -320.289,-170.713 -560.912,-170.713l-0,-112.182l2243.65,-0l-0,112.182c-169.087,19.51 -299.154,47.962 -390.2,85.357c-91.047,37.394 -183.72,98.363 -278.018,182.906c-221.113,208.107 -466.614,518.641 -736.503,931.603l-1112.07,1697.37c-133.319,201.603 -214.611,349.554 -243.876,443.853c-29.265,94.298 -43.897,253.63 -43.897,477.995l-0,1194.99c-0,347.928 17.071,597.494 51.214,748.697c34.142,151.202 103.24,280.456 207.294,387.761c178.841,188.597 434.097,282.895 765.767,282.895l0,112.183l-3116.72,-0Z" style="fill:#fff;fill-rule:nonzero;stroke:#fff;stroke-width:416.67px;"/><path d="M32900.7,43917l135.996,5065.84l-260.658,-0c-83.109,-219.104 -147.329,-385.321 -192.661,-498.651c-264.436,-725.31 -479.762,-1265.52 -645.979,-1620.61c-294.657,-634.646 -721.532,-1216.4 -1280.62,-1745.28c-423.098,-400.432 -861.306,-691.311 -1314.62,-872.639c-453.319,-181.327 -963.303,-271.991 -1529.95,-271.991c-853.75,0 -1594.17,185.105 -2221.26,555.316c-551.537,324.878 -1065.3,791.418 -1541.28,1399.62c-475.985,608.203 -865.083,1301.4 -1167.3,2079.6c-430.652,1095.52 -645.979,2342.15 -645.979,3739.88c0,1186.18 147.329,2255.26 441.986,3207.23c294.657,951.97 725.31,1749.06 1291.96,2391.26c1042.63,1193.74 2425.26,1790.61 4147.87,1790.61c861.306,0 1635.73,-149.217 2323.26,-447.652c687.534,-298.435 1220.18,-719.643 1597.95,-1263.63c438.208,-627.091 755.531,-1473.29 951.969,-2538.58l260.658,45.331c-143.551,1193.74 -468.429,2141.93 -974.635,2844.58c-483.54,672.423 -1150.3,1186.18 -2000.27,1541.28c-849.972,355.099 -1834.05,532.649 -2952.24,532.649c-1042.63,0 -2039.93,-154.884 -2991.9,-464.651c-1518.62,-498.651 -2704.8,-1399.62 -3558.55,-2702.91c-853.75,-1303.29 -1280.62,-2857.8 -1280.62,-4663.52c0,-1382.62 249.325,-2657.58 747.976,-3824.88c498.651,-1167.3 1193.74,-2106.04 2085.27,-2816.24c687.533,-543.982 1509.17,-976.524 2464.92,-1297.62c955.747,-321.1 1913.38,-481.651 2872.91,-481.651c914.193,0 1881.27,173.772 2901.24,521.317l929.303,305.99c181.328,67.998 339.989,101.997 475.985,101.997c188.883,-0 343.767,-79.331 464.652,-237.993c52.887,-75.553 117.107,-200.215 192.66,-373.988l271.991,0Z" style="fill:#fff;fill-rule:nonzero;stroke:#fff;stroke-width:416.67px;"/><g><path d="M98939.7,55054.2l-3204.52,-0l-0,-112.183c289.398,-26.013 491.002,-74.788 604.81,-146.325c201.604,-126.815 302.405,-302.405 302.405,-526.77c0,-133.319 -45.523,-312.16 -136.57,-536.525l-82.917,-204.856l-468.24,-1151.09l-2146.1,-0l-253.63,673.095l-121.937,302.405c-146.325,357.684 -219.488,638.953 -219.488,843.808c0,120.312 26.826,232.494 80.479,336.548c53.652,104.053 126.002,188.597 217.049,253.63c126.815,87.795 289.398,139.822 487.75,156.08l0,112.183l-2185.12,-0l-0,-112.183c172.338,-9.755 323.541,-52.027 453.608,-126.815c130.066,-74.788 256.881,-195.1 380.445,-360.935c104.053,-133.319 205.668,-304.844 304.844,-514.577c99.176,-209.732 230.055,-524.331 392.639,-943.796l1785.17,-4599.48l278.017,-0l2121.71,5126.26c159.332,386.948 286.147,663.34 380.445,829.175c94.298,165.835 196.726,291.025 307.283,375.568c78.04,58.53 167.461,103.24 268.262,134.131c100.802,30.891 252.005,57.717 453.608,80.479l0,112.183Zm-3063.07,-2877.73l-1024.28,-2526.55l-965.746,2526.55l1990.02,0Z" style="fill:#fff;fill-rule:nonzero;stroke:#fff;stroke-width:416.67px;"/><path d="M101169,51576.5l-0,1946.12c-0,331.67 17.884,576.358 53.652,734.064c35.769,157.706 104.054,290.211 204.855,397.516c87.795,94.299 191.036,163.397 309.722,207.294c118.686,43.898 270.701,70.724 456.046,80.479l0,112.183l-3116.72,-0l0,-112.183c156.08,0 304.031,-25.2 443.853,-75.601c139.822,-50.401 248.752,-117.873 326.792,-202.417c91.047,-100.801 156.081,-238.997 195.101,-414.587c39.02,-175.59 58.53,-417.84 58.53,-726.748l-0,-3594.72c-0,-208.107 -11.381,-424.343 -34.143,-648.708c-32.517,-286.147 -172.338,-499.131 -419.465,-638.953c-136.57,-74.788 -326.793,-118.686 -570.668,-131.693l0,-112.182l5096.99,-0l141.448,1585.19l-112.183,24.388c-81.292,-247.127 -156.08,-432.472 -224.365,-556.036c-152.828,-282.895 -367.438,-502.382 -643.83,-658.462c-159.332,-91.047 -343.051,-154.455 -551.158,-190.223c-208.107,-35.768 -494.254,-53.653 -858.44,-53.653l-756.013,0l-0,2877.73l195.1,-0c575.545,-0 993.384,-128.441 1253.52,-385.323c113.808,-110.557 199.977,-241.436 258.507,-392.639c58.531,-151.202 97.551,-348.741 117.061,-592.616l112.182,4.877l-29.265,2955.77l-117.06,-0c-35.768,-331.671 -96.737,-587.739 -182.906,-768.207c-86.169,-180.468 -217.049,-325.98 -392.639,-436.536c-130.067,-81.292 -290.212,-140.635 -480.434,-178.029c-190.223,-37.395 -434.911,-56.092 -734.064,-56.092Z" style="fill:#fff;fill-rule:nonzero;stroke:#fff;stroke-width:416.67px;"/><path d="M109758,48396.4l82.918,1609.58l-112.183,4.877c-42.271,-273.14 -112.182,-499.131 -209.732,-677.973c-97.55,-178.841 -238.998,-336.547 -424.343,-473.117c-152.828,-113.809 -333.296,-194.288 -541.403,-241.437c-208.106,-47.149 -484.498,-70.724 -829.175,-70.724l-1116.95,0l-0,2926.5l292.65,-0c295.902,-0 518.641,-19.51 668.218,-58.53c149.577,-39.02 271.514,-108.931 365.813,-209.733c91.046,-94.298 158.518,-205.668 202.416,-334.109c43.897,-128.441 80.479,-317.85 109.744,-568.229l112.182,4.878l-19.51,2614.34l-112.182,0c-29.265,-250.378 -72.35,-451.982 -129.254,-604.81c-56.904,-152.829 -135.757,-282.895 -236.559,-390.2c-97.55,-104.054 -224.365,-180.468 -380.445,-229.243c-156.08,-48.775 -354.432,-73.163 -595.056,-73.163l-278.017,0l-0,1116.95c-0,445.478 11.381,769.832 34.142,973.061c22.762,203.229 66.66,373.129 131.693,509.699c110.557,234.12 278.831,405.646 504.821,514.577c225.991,108.931 524.332,163.396 895.022,163.396c390.2,0 716.993,-49.588 980.378,-148.764c263.385,-99.176 477.995,-252.817 643.83,-460.924c117.061,-139.821 212.172,-299.153 285.334,-477.995c73.163,-178.842 140.635,-414.588 202.417,-707.238l112.182,4.878l-63.407,1941.25l-5818.86,-0l0,-112.183c185.345,-9.755 335.735,-35.768 451.169,-78.04c115.435,-42.272 218.675,-110.557 309.722,-204.855c100.801,-104.053 169.899,-236.559 207.294,-397.516c37.394,-160.958 56.091,-407.272 56.091,-738.942l-0,-3594.72c-0,-331.671 -18.697,-577.984 -56.091,-738.942c-37.395,-160.958 -106.493,-293.463 -207.294,-397.516c-87.795,-94.299 -189.41,-162.584 -304.844,-204.856c-115.434,-42.271 -267.45,-68.285 -456.047,-78.04l0,-112.182l5243.32,-0Z" style="fill:#fff;fill-rule:nonzero;stroke:#fff;stroke-width:416.67px;"/><path d="M91143.6,43917l135.996,5065.84l-260.659,-0c-83.108,-219.104 -147.328,-385.321 -192.66,-498.651c-264.436,-725.31 -479.762,-1265.52 -645.979,-1620.61c-294.657,-634.646 -721.532,-1216.4 -1280.63,-1745.28c-423.097,-400.432 -861.305,-691.311 -1314.62,-872.639c-453.318,-181.327 -963.302,-271.991 -1529.95,-271.991c-853.75,0 -1594.17,185.105 -2221.26,555.316c-551.537,324.878 -1065.3,791.418 -1541.28,1399.62c-475.985,608.203 -865.083,1301.4 -1167.3,2079.6c-430.653,1095.52 -645.979,2342.15 -645.979,3739.88c-0,1186.18 147.328,2255.26 441.986,3207.23c294.657,951.97 725.31,1749.06 1291.96,2391.26c1042.63,1193.74 2425.26,1790.61 4147.87,1790.61c861.305,0 1635.73,-149.217 2323.26,-447.652c687.533,-298.435 1220.18,-719.643 1597.95,-1263.63c438.209,-627.091 755.532,-1473.29 951.97,-2538.58l260.658,45.331c-143.551,1193.74 -468.429,2141.93 -974.635,2844.58c-483.54,672.423 -1150.3,1186.18 -2000.27,1541.28c-849.972,355.099 -1834.05,532.649 -2952.24,532.649c-1042.63,0 -2039.93,-154.884 -2991.9,-464.651c-1518.62,-498.651 -2704.8,-1399.62 -3558.55,-2702.91c-853.75,-1303.29 -1280.62,-2857.8 -1280.62,-4663.52c-0,-1382.62 249.325,-2657.58 747.976,-3824.88c498.65,-1167.3 1193.74,-2106.04 2085.27,-2816.24c687.533,-543.982 1509.17,-976.524 2464.92,-1297.62c955.747,-321.1 1913.38,-481.651 2872.91,-481.651c914.193,0 1881.27,173.772 2901.24,521.317l929.303,305.99c181.328,67.998 339.989,101.997 475.985,101.997c188.882,-0 343.766,-79.331 464.651,-237.993c52.888,-75.553 117.108,-200.215 192.661,-373.988l271.991,0Z" style="fill:#fff;fill-rule:nonzero;stroke:#fff;stroke-width:416.67px;"/></g></g></g></g></g><g><path d="M31081.4,67659.1l0,1040.04c0,138.179 -13.571,248.598 -40.713,331.259c-27.142,82.66 -77.109,157.301 -149.899,223.923c-72.791,66.622 -165.938,130.776 -279.442,192.463c-328.174,177.658 -644.011,307.201 -947.51,388.627c-303.5,81.427 -634.141,122.14 -991.925,122.14c-417.003,0 -796.994,-64.154 -1139.97,-192.463c-342.979,-128.308 -635.374,-314.603 -877.187,-558.883c-241.812,-244.28 -427.49,-540.377 -557.032,-888.291c-129.543,-347.914 -194.314,-736.541 -194.314,-1165.88c-0,-421.938 62.921,-808.098 188.762,-1158.48c125.841,-350.382 310.902,-647.713 555.182,-891.993c244.28,-244.28 541.61,-431.191 891.992,-560.733c350.381,-129.543 747.645,-194.314 1191.79,-194.314c365.187,0 688.426,48.733 969.718,146.198c281.292,97.465 509.534,220.222 684.724,368.271c175.191,148.048 307.201,304.733 396.03,470.054c88.829,165.32 133.244,312.135 133.244,440.444c-0,138.178 -51.2,256 -153.601,353.466c-102.4,97.465 -225.157,146.198 -368.27,146.198c-78.959,-0 -154.834,-18.506 -227.625,-55.519c-72.79,-37.012 -133.86,-88.829 -183.21,-155.451c-135.711,-212.202 -250.449,-372.588 -344.213,-481.157c-93.764,-108.569 -220.222,-199.866 -379.374,-273.89c-159.152,-74.024 -362.102,-111.036 -608.849,-111.036c-254.15,-0 -481.158,43.797 -681.023,131.393c-199.866,87.595 -370.739,214.67 -512.618,381.225c-141.88,166.554 -250.449,370.738 -325.707,612.55c-75.258,241.813 -112.887,509.534 -112.887,803.163c-0,636.609 146.198,1126.4 438.594,1469.38c292.395,342.979 700.146,514.468 1223.25,514.468c254.15,0 492.879,-33.31 716.185,-99.932c223.307,-66.622 449.697,-161.62 679.172,-284.994l0,-880.888l-851.278,-0c-204.801,-0 -359.635,-30.844 -464.503,-92.531c-104.867,-61.686 -157.301,-166.554 -157.301,-314.603c-0,-120.906 43.798,-220.839 131.393,-299.798c87.595,-78.959 206.651,-118.439 357.167,-118.439l1247.31,0c152.983,0 282.526,13.571 388.627,40.714c106.101,27.142 191.846,87.595 257.234,181.359c65.388,93.764 98.082,234.41 98.082,421.938Z" style="fill:#fff;fill-rule:nonzero;stroke:#fff;stroke-width:416.67px;"/><path d="M34516.1,64346.5c562.584,0 1045.59,114.121 1449.02,342.362c403.432,228.242 708.782,552.715 916.05,973.419c207.268,420.705 310.902,914.816 310.902,1482.34c0,419.471 -56.752,800.695 -170.256,1143.67c-113.503,342.979 -283.759,640.31 -510.767,891.993c-227.008,251.682 -505.832,444.145 -836.474,577.389c-330.642,133.243 -709.399,199.865 -1136.27,199.865c-424.406,0 -804.397,-68.472 -1139.97,-205.417c-335.576,-136.945 -615.635,-330.025 -840.175,-579.24c-224.54,-249.215 -394.179,-549.013 -508.917,-899.394c-114.737,-350.382 -172.106,-729.139 -172.106,-1136.27c0,-417.003 59.836,-799.462 179.509,-1147.38c119.672,-347.914 293.012,-644.011 520.02,-888.291c227.008,-244.28 503.365,-431.191 829.072,-560.733c325.706,-129.543 695.828,-194.314 1110.36,-194.314Zm1561.91,2790.71c0,-397.263 -64.154,-741.476 -192.463,-1032.64c-128.308,-291.162 -311.518,-511.384 -549.63,-660.666c-238.111,-149.283 -511.384,-223.924 -819.818,-223.924c-219.606,0 -422.556,41.33 -608.85,123.991c-186.294,82.66 -346.68,202.95 -481.158,360.868c-134.477,157.918 -240.578,359.635 -318.304,605.148c-77.725,245.514 -116.588,521.254 -116.588,827.221c-0,308.435 38.863,587.259 116.588,836.474c77.726,249.215 187.528,455.866 329.408,619.953c141.88,164.088 304.733,286.844 488.56,368.271c183.827,81.427 385.543,122.14 605.148,122.14c281.293,0 539.761,-70.323 775.404,-210.969c235.644,-140.646 423.172,-357.784 562.585,-651.413c139.412,-293.63 209.118,-655.115 209.118,-1084.46Z" style="fill:#fff;fill-rule:nonzero;stroke:#fff;stroke-width:416.67px;"/><path d="M40519.5,64346.5c562.585,0 1045.59,114.121 1449.03,342.362c403.432,228.242 708.782,552.715 916.05,973.419c207.268,420.705 310.902,914.816 310.902,1482.34c0,419.471 -56.752,800.695 -170.256,1143.67c-113.504,342.979 -283.759,640.31 -510.767,891.993c-227.008,251.682 -505.832,444.145 -836.474,577.389c-330.642,133.243 -709.399,199.865 -1136.27,199.865c-424.406,0 -804.397,-68.472 -1139.97,-205.417c-335.576,-136.945 -615.635,-330.025 -840.175,-579.24c-224.54,-249.215 -394.179,-549.013 -508.917,-899.394c-114.737,-350.382 -172.106,-729.139 -172.106,-1136.27c-0,-417.003 59.836,-799.462 179.509,-1147.38c119.672,-347.914 293.012,-644.011 520.02,-888.291c227.008,-244.28 503.365,-431.191 829.072,-560.733c325.706,-129.543 695.828,-194.314 1110.36,-194.314Zm1561.91,2790.71c0,-397.263 -64.154,-741.476 -192.463,-1032.64c-128.309,-291.162 -311.519,-511.384 -549.63,-660.666c-238.111,-149.283 -511.384,-223.924 -819.819,-223.924c-219.605,0 -422.555,41.33 -608.849,123.991c-186.294,82.66 -346.68,202.95 -481.158,360.868c-134.477,157.918 -240.579,359.635 -318.304,605.148c-77.726,245.514 -116.588,521.254 -116.588,827.221c-0,308.435 38.862,587.259 116.588,836.474c77.725,249.215 187.528,455.866 329.408,619.953c141.88,164.088 304.733,286.844 488.56,368.271c183.827,81.427 385.543,122.14 605.148,122.14c281.292,0 539.76,-70.323 775.404,-210.969c235.644,-140.646 423.172,-357.784 562.585,-651.413c139.412,-293.63 209.118,-655.115 209.118,-1084.46Z" style="fill:#fff;fill-rule:nonzero;stroke:#fff;stroke-width:416.67px;"/><path d="M44816.6,64439l1432.37,0c372.589,0 692.127,34.545 958.614,103.634c266.488,69.09 508.3,198.632 725.438,388.628c565.052,483.625 847.578,1218.93 847.578,2205.92c-0,325.707 -28.376,623.038 -85.128,891.993c-56.752,268.954 -144.347,511.384 -262.786,727.288c-118.439,215.904 -270.189,408.984 -455.249,579.24c-145.581,130.776 -304.733,235.643 -477.457,314.603c-172.723,78.959 -358.4,134.477 -557.032,166.554c-198.632,32.077 -422.555,48.116 -671.77,48.116l-1432.37,-0c-199.865,-0 -350.381,-30.227 -451.548,-90.68c-101.166,-60.453 -167.171,-145.581 -198.014,-255.383c-30.844,-109.803 -46.266,-252.3 -46.266,-427.49l0,-3978.8c0,-236.878 53.051,-408.367 159.153,-514.468c106.101,-106.102 277.591,-159.153 514.468,-159.153Zm425.64,869.785l-0,3682.71l832.772,-0c182.594,-0 325.707,-4.935 429.341,-14.805c103.634,-9.87 210.969,-34.545 322.006,-74.024c111.036,-39.48 207.267,-94.998 288.694,-166.555c367.654,-310.902 551.481,-846.344 551.481,-1606.33c-0,-535.442 -80.81,-936.407 -242.43,-1202.89c-161.619,-266.487 -360.868,-436.126 -597.745,-508.917c-236.878,-72.79 -523.105,-109.186 -858.682,-109.186l-725.437,0Z" style="fill:#fff;fill-rule:nonzero;stroke:#fff;stroke-width:416.67px;"/><path d="M52748.3,65012.7l-0,1554.51l2372.48,-0l-0,-1554.51c-0,-222.072 49.966,-388.627 149.899,-499.663c99.933,-111.037 231.326,-166.555 394.179,-166.555c165.321,0 299.182,54.901 401.582,164.704c102.4,109.803 153.6,276.974 153.6,501.514l0,4274.9c0,224.54 -51.817,392.328 -155.451,503.365c-103.634,111.036 -236.877,166.554 -399.731,166.554c-165.321,0 -297.331,-56.135 -396.03,-168.405c-98.699,-112.27 -148.048,-279.441 -148.048,-501.514l-0,-1824.7l-2372.48,0l-0,1824.7c-0,224.54 -51.817,392.328 -155.451,503.365c-103.634,111.036 -236.878,166.554 -399.731,166.554c-165.321,0 -297.331,-56.135 -396.03,-168.405c-98.699,-112.27 -148.048,-279.441 -148.048,-501.514l-0,-4274.9c-0,-222.072 48.732,-388.627 146.197,-499.663c97.466,-111.037 230.092,-166.555 397.881,-166.555c165.321,0 299.181,54.901 401.581,164.704c102.401,109.803 153.601,276.974 153.601,501.514Z" style="fill:#fff;fill-rule:nonzero;stroke:#fff;stroke-width:416.67px;"/><path d="M59788,64346.5c562.584,0 1045.59,114.121 1449.03,342.362c403.432,228.242 708.782,552.715 916.05,973.419c207.268,420.705 310.902,914.816 310.902,1482.34c-0,419.471 -56.752,800.695 -170.256,1143.67c-113.504,342.979 -283.76,640.31 -510.767,891.993c-227.008,251.682 -505.833,444.145 -836.475,577.389c-330.641,133.243 -709.399,199.865 -1136.27,199.865c-424.405,0 -804.397,-68.472 -1139.97,-205.417c-335.577,-136.945 -615.635,-330.025 -840.175,-579.24c-224.541,-249.215 -394.18,-549.013 -508.917,-899.394c-114.738,-350.382 -172.107,-729.139 -172.107,-1136.27c0,-417.003 59.837,-799.462 179.509,-1147.38c119.673,-347.914 293.013,-644.011 520.021,-888.291c227.007,-244.28 503.364,-431.191 829.071,-560.733c325.707,-129.543 695.828,-194.314 1110.36,-194.314Zm1561.91,2790.71c-0,-397.263 -64.155,-741.476 -192.463,-1032.64c-128.309,-291.162 -311.519,-511.384 -549.63,-660.666c-238.112,-149.283 -511.385,-223.924 -819.819,-223.924c-219.605,0 -422.555,41.33 -608.85,123.991c-186.294,82.66 -346.68,202.95 -481.157,360.868c-134.478,157.918 -240.579,359.635 -318.304,605.148c-77.726,245.514 -116.589,521.254 -116.589,827.221c0,308.435 38.863,587.259 116.589,836.474c77.725,249.215 187.528,455.866 329.407,619.953c141.88,164.088 304.734,286.844 488.561,368.271c183.826,81.427 385.543,122.14 605.148,122.14c281.292,0 539.76,-70.323 775.404,-210.969c235.644,-140.646 423.172,-357.784 562.584,-651.413c139.413,-293.63 209.119,-655.115 209.119,-1084.46Z" style="fill:#fff;fill-rule:nonzero;stroke:#fff;stroke-width:416.67px;"/><path d="M65236.2,69047l-869.785,-3456.93l-0,3745.63c-0,207.268 -46.265,362.718 -138.796,466.352c-92.53,103.634 -215.287,155.451 -368.27,155.451c-148.049,0 -268.955,-51.2 -362.719,-153.6c-93.764,-102.4 -140.646,-258.468 -140.646,-468.203l-0,-4293.41c-0,-236.878 61.687,-396.647 185.06,-479.307c123.374,-82.66 289.929,-123.991 499.664,-123.991l340.512,0c204.8,0 353.466,18.506 445.996,55.519c92.53,37.012 161.003,103.634 205.417,199.865c44.415,96.232 94.998,252.916 151.75,470.054l788.358,2972.07l788.358,-2972.07c56.752,-217.138 107.336,-373.822 151.75,-470.054c44.415,-96.231 112.887,-162.853 205.417,-199.865c92.531,-37.013 241.196,-55.519 445.997,-55.519l340.511,0c209.736,0 376.29,41.331 499.664,123.991c123.374,82.66 185.06,242.429 185.06,479.307l0,4293.41c0,207.268 -46.265,362.718 -138.795,466.352c-92.53,103.634 -216.521,155.451 -371.972,155.451c-145.581,0 -265.253,-51.817 -359.018,-155.451c-93.764,-103.634 -140.646,-259.084 -140.646,-466.352l0,-3745.63l-869.785,3456.93c-56.751,224.54 -103.017,389.244 -138.795,494.112c-35.778,104.868 -101.783,200.482 -198.015,286.844c-96.231,86.361 -229.475,129.542 -399.731,129.542c-128.309,0 -236.877,-27.759 -325.707,-83.277c-88.829,-55.518 -157.918,-126.458 -207.267,-212.82c-49.35,-86.361 -88.213,-181.976 -116.589,-286.844c-28.376,-104.867 -57.368,-214.053 -86.978,-327.557Z" style="fill:#fff;fill-rule:nonzero;stroke:#fff;stroke-width:416.67px;"/><path d="M73293.7,65286.6l-2476.11,0l0,1332.44l2279.95,-0c167.789,-0 293.013,37.629 375.673,112.887c82.661,75.258 123.991,174.573 123.991,297.947c0,123.374 -40.713,223.924 -122.14,301.649c-81.427,77.725 -207.268,116.588 -377.524,116.588l-2279.95,0l0,1543.41l2561.24,-0c172.724,-0 302.883,40.096 390.478,120.289c87.596,80.193 131.393,186.911 131.393,320.155c0,128.309 -43.797,232.56 -131.393,312.753c-87.595,80.192 -217.754,120.289 -390.478,120.289l-2986.88,-0c-239.345,-0 -411.451,-53.051 -516.319,-159.152c-104.868,-106.102 -157.302,-277.591 -157.302,-514.469l0,-4078.74c0,-157.918 23.441,-286.844 70.323,-386.777c46.882,-99.932 120.29,-172.723 220.222,-218.371c99.933,-45.649 227.625,-68.473 383.076,-68.473l2901.75,0c175.19,0 305.35,38.863 390.478,116.589c85.127,77.725 127.691,179.508 127.691,305.35c0,128.308 -42.564,231.325 -127.691,309.051c-85.128,77.725 -215.288,116.588 -390.478,116.588Z" style="fill:#fff;fill-rule:nonzero;stroke:#fff;stroke-width:416.67px;"/><path d="M81292.1,68151.3c-0,172.723 -42.564,359.634 -127.692,560.733c-85.128,201.099 -218.988,398.497 -401.581,592.194c-182.594,193.697 -415.77,350.999 -699.53,471.905c-283.759,120.906 -614.401,181.359 -991.925,181.359c-286.227,0 -546.545,-27.142 -780.955,-81.426c-234.411,-54.285 -447.23,-138.796 -638.46,-253.533c-191.229,-114.738 -367.036,-265.871 -527.422,-453.399c-143.114,-170.256 -265.254,-360.868 -366.42,-571.837c-101.167,-210.969 -177.042,-436.127 -227.625,-675.472c-50.583,-239.345 -75.875,-493.495 -75.875,-762.449c0,-436.743 63.538,-827.838 190.613,-1173.29c127.075,-345.446 309.051,-640.926 545.928,-886.44c236.878,-245.514 514.469,-432.425 832.773,-560.734c318.305,-128.309 657.582,-192.463 1017.83,-192.463c439.21,0 830.305,87.595 1173.28,262.786c342.979,175.191 605.765,391.712 788.358,649.563c182.594,257.851 273.89,501.514 273.89,730.989c0,125.842 -44.414,236.878 -133.244,333.11c-88.829,96.231 -196.164,144.347 -322.005,144.347c-140.646,-0 -246.131,-33.311 -316.454,-99.933c-70.323,-66.622 -148.665,-181.359 -235.027,-344.213c-143.113,-268.954 -311.518,-470.054 -505.215,-603.297c-193.697,-133.244 -432.425,-199.866 -716.185,-199.866c-451.548,0 -811.182,171.49 -1078.9,514.469c-267.721,342.979 -401.582,830.305 -401.582,1461.98c0,421.938 59.22,772.936 177.658,1053c118.439,280.058 286.227,489.177 503.365,627.355c217.138,138.179 471.288,207.268 762.45,207.268c315.837,0 582.941,-78.342 801.313,-235.027c218.371,-156.685 383.075,-386.777 494.111,-690.276c46.882,-143.114 104.868,-259.702 173.957,-349.765c69.09,-90.062 180.126,-135.094 333.11,-135.094c130.776,0 243.046,45.648 336.81,136.945c93.764,91.297 140.646,204.8 140.646,340.512Z" style="fill:#fff;fill-rule:nonzero;stroke:#fff;stroke-width:416.67px;"/><path d="M84667.6,64346.5c562.584,0 1045.59,114.121 1449.03,342.362c403.432,228.242 708.782,552.715 916.05,973.419c207.268,420.705 310.902,914.816 310.902,1482.34c-0,419.471 -56.752,800.695 -170.256,1143.67c-113.504,342.979 -283.76,640.31 -510.768,891.993c-227.007,251.682 -505.832,444.145 -836.474,577.389c-330.641,133.243 -709.399,199.865 -1136.27,199.865c-424.406,0 -804.397,-68.472 -1139.97,-205.417c-335.577,-136.945 -615.635,-330.025 -840.176,-579.24c-224.54,-249.215 -394.179,-549.013 -508.916,-899.394c-114.738,-350.382 -172.107,-729.139 -172.107,-1136.27c0,-417.003 59.837,-799.462 179.509,-1147.38c119.673,-347.914 293.013,-644.011 520.02,-888.291c227.008,-244.28 503.365,-431.191 829.072,-560.733c325.707,-129.543 695.828,-194.314 1110.36,-194.314Zm1561.91,2790.71c-0,-397.263 -64.155,-741.476 -192.464,-1032.64c-128.308,-291.162 -311.518,-511.384 -549.63,-660.666c-238.111,-149.283 -511.384,-223.924 -819.818,-223.924c-219.605,0 -422.555,41.33 -608.85,123.991c-186.294,82.66 -346.68,202.95 -481.157,360.868c-134.478,157.918 -240.579,359.635 -318.305,605.148c-77.725,245.514 -116.588,521.254 -116.588,827.221c0,308.435 38.863,587.259 116.588,836.474c77.726,249.215 187.529,455.866 329.408,619.953c141.88,164.088 304.734,286.844 488.56,368.271c183.827,81.427 385.543,122.14 605.149,122.14c281.292,0 539.76,-70.323 775.404,-210.969c235.644,-140.646 423.172,-357.784 562.584,-651.413c139.412,-293.63 209.119,-655.115 209.119,-1084.46Z" style="fill:#fff;fill-rule:nonzero;stroke:#fff;stroke-width:416.67px;"/><path d="M90670.9,64346.5c562.584,0 1045.59,114.121 1449.02,342.362c403.432,228.242 708.783,552.715 916.05,973.419c207.268,420.705 310.902,914.816 310.902,1482.34c0,419.471 -56.752,800.695 -170.255,1143.67c-113.504,342.979 -283.76,640.31 -510.768,891.993c-227.008,251.682 -505.832,444.145 -836.474,577.389c-330.642,133.243 -709.399,199.865 -1136.27,199.865c-424.406,0 -804.397,-68.472 -1139.97,-205.417c-335.576,-136.945 -615.635,-330.025 -840.175,-579.24c-224.54,-249.215 -394.179,-549.013 -508.917,-899.394c-114.737,-350.382 -172.106,-729.139 -172.106,-1136.27c0,-417.003 59.836,-799.462 179.509,-1147.38c119.672,-347.914 293.013,-644.011 520.02,-888.291c227.008,-244.28 503.365,-431.191 829.072,-560.733c325.707,-129.543 695.828,-194.314 1110.36,-194.314Zm1561.91,2790.71c0,-397.263 -64.154,-741.476 -192.463,-1032.64c-128.308,-291.162 -311.518,-511.384 -549.63,-660.666c-238.111,-149.283 -511.384,-223.924 -819.818,-223.924c-219.606,0 -422.555,41.33 -608.85,123.991c-186.294,82.66 -346.68,202.95 -481.158,360.868c-134.477,157.918 -240.578,359.635 -318.304,605.148c-77.725,245.514 -116.588,521.254 -116.588,827.221c0,308.435 38.863,587.259 116.588,836.474c77.726,249.215 187.528,455.866 329.408,619.953c141.88,164.088 304.733,286.844 488.56,368.271c183.827,81.427 385.543,122.14 605.148,122.14c281.293,0 539.761,-70.323 775.404,-210.969c235.644,-140.646 423.172,-357.784 562.585,-651.413c139.412,-293.63 209.118,-655.115 209.118,-1084.46Z" style="fill:#fff;fill-rule:nonzero;stroke:#fff;stroke-width:416.67px;"/><path d="M95393.7,65012.7l-0,1902.42l2157.81,-2250.34c103.634,-108.569 191.846,-188.761 264.636,-240.578c72.791,-51.817 169.639,-77.726 290.546,-77.726c157.918,0 285.61,46.265 383.075,138.796c97.465,92.53 146.198,205.417 146.198,338.66c0,160.386 -82.66,319.538 -247.981,477.457l-1336.14,1265.82l1539.7,2205.92c108.569,152.984 189.996,286.844 244.281,401.582c54.284,114.737 81.426,226.391 81.426,334.96c0,120.906 -47.499,225.774 -142.496,314.603c-94.998,88.829 -223.924,133.243 -386.777,133.243c-152.984,0 -277.591,-32.694 -373.823,-98.082c-96.231,-65.388 -177.658,-152.366 -244.28,-260.935c-66.622,-108.569 -125.841,-207.268 -177.658,-296.097l-1299.13,-1998.65l-899.394,862.382l-0,1121.47c-0,227.008 -51.817,395.413 -155.451,505.215c-103.634,109.803 -236.878,164.704 -399.731,164.704c-93.764,0 -183.827,-24.675 -270.189,-74.024c-86.361,-49.349 -152.983,-115.971 -199.865,-199.865c-34.545,-69.09 -55.518,-149.283 -62.921,-240.579c-7.402,-91.297 -11.103,-223.307 -11.103,-396.03l-0,-4034.32c-0,-222.072 48.732,-388.627 146.198,-499.663c97.465,-111.037 230.092,-166.555 397.88,-166.555c165.321,0 299.181,54.901 401.582,164.704c102.4,109.803 153.6,276.974 153.6,501.514Z" style="fill:#fff;fill-rule:nonzero;stroke:#fff;stroke-width:416.67px;"/><path d="M99942.5,69287.6l0,-4274.9c0,-222.072 50.583,-388.627 151.75,-499.663c101.166,-111.037 231.942,-166.555 392.328,-166.555c165.321,0 299.182,54.901 401.582,164.704c102.4,109.803 153.6,276.974 153.6,501.514l0,4274.9c0,224.54 -51.2,392.328 -153.6,503.365c-102.4,111.036 -236.261,166.554 -401.582,166.554c-157.918,0 -288.077,-56.135 -390.478,-168.405c-102.4,-112.27 -153.6,-279.441 -153.6,-501.514Z" style="fill:#fff;fill-rule:nonzero;stroke:#fff;stroke-width:416.67px;"/><path d="M103703,65005.3l2113.39,3197.85l0,-3227.46c0,-209.735 45.032,-367.037 135.095,-471.904c90.063,-104.868 211.586,-157.302 364.569,-157.302c157.919,0 282.526,52.434 373.823,157.302c91.296,104.867 136.944,262.169 136.944,471.904l0,4267.5c0,476.223 -197.398,714.334 -592.194,714.334c-98.699,0 -187.528,-14.188 -266.487,-42.564c-78.959,-28.376 -152.983,-73.407 -222.073,-135.094c-69.089,-61.687 -133.243,-133.86 -192.463,-216.521c-59.219,-82.66 -118.438,-167.171 -177.658,-253.533l-2061.57,-3160.84l-0,3179.34c-0,207.268 -48.116,363.953 -144.348,470.054c-96.231,106.102 -219.605,159.152 -370.121,159.152c-155.451,0 -280.058,-53.667 -373.822,-161.002c-93.764,-107.336 -140.646,-263.403 -140.646,-468.204l-0,-4186.07c-0,-177.658 19.739,-317.071 59.219,-418.237c46.882,-111.037 124.608,-201.716 233.176,-272.039c108.569,-70.323 225.774,-105.485 351.616,-105.485c98.699,0 183.21,16.039 253.533,48.116c70.323,32.077 132.01,75.258 185.06,129.542c53.051,54.285 107.335,124.608 162.854,210.969c55.518,86.362 112.887,176.425 172.106,270.189Z" style="fill:#fff;fill-rule:nonzero;stroke:#fff;stroke-width:416.67px;"/><path d="M112986,67659.1l0,1040.04c0,138.179 -13.571,248.598 -40.713,331.259c-27.142,82.66 -77.109,157.301 -149.899,223.923c-72.791,66.622 -165.938,130.776 -279.442,192.463c-328.174,177.658 -644.011,307.201 -947.51,388.627c-303.5,81.427 -634.141,122.14 -991.925,122.14c-417.003,0 -796.995,-64.154 -1139.97,-192.463c-342.979,-128.308 -635.374,-314.603 -877.187,-558.883c-241.813,-244.28 -427.49,-540.377 -557.033,-888.291c-129.542,-347.914 -194.313,-736.541 -194.313,-1165.88c-0,-421.938 62.92,-808.098 188.762,-1158.48c125.841,-350.382 310.901,-647.713 555.182,-891.993c244.28,-244.28 541.61,-431.191 891.992,-560.733c350.381,-129.543 747.645,-194.314 1191.79,-194.314c365.187,0 688.426,48.733 969.718,146.198c281.292,97.465 509.533,220.222 684.724,368.271c175.191,148.048 307.201,304.733 396.03,470.054c88.829,165.32 133.244,312.135 133.244,440.444c-0,138.178 -51.2,256 -153.601,353.466c-102.4,97.465 -225.157,146.198 -368.27,146.198c-78.96,-0 -154.834,-18.506 -227.625,-55.519c-72.79,-37.012 -133.86,-88.829 -183.21,-155.451c-135.711,-212.202 -250.449,-372.588 -344.213,-481.157c-93.764,-108.569 -220.222,-199.866 -379.374,-273.89c-159.152,-74.024 -362.102,-111.036 -608.85,-111.036c-254.149,-0 -481.157,43.797 -681.023,131.393c-199.865,87.595 -370.738,214.67 -512.618,381.225c-141.879,166.554 -250.448,370.738 -325.706,612.55c-75.258,241.813 -112.887,509.534 -112.887,803.163c-0,636.609 146.198,1126.4 438.593,1469.38c292.396,342.979 700.147,514.468 1223.25,514.468c254.15,0 492.878,-33.31 716.185,-99.932c223.306,-66.622 449.697,-161.62 679.172,-284.994l0,-880.888l-851.279,-0c-204.8,-0 -359.634,-30.844 -464.502,-92.531c-104.867,-61.686 -157.301,-166.554 -157.301,-314.603c-0,-120.906 43.797,-220.839 131.393,-299.798c87.595,-78.959 206.651,-118.439 357.167,-118.439l1247.31,0c152.984,0 282.526,13.571 388.628,40.714c106.101,27.142 191.846,87.595 257.234,181.359c65.388,93.764 98.082,234.41 98.082,421.938Z" style="fill:#fff;fill-rule:nonzero;stroke:#fff;stroke-width:416.67px;"/></g></g></g></g><g><g><g><g><g id="g17501" serif:id="g1750"><g id="g16631" serif:id="g1663"><path id="path8261" serif:id="path826" d="M62047.5,25336.5c-10121.8,991.092 -17635.2,10135.5 -16644.2,20257.3c49.079,479.858 116.859,957.621 203.196,1432.2c-291.112,-9686.71 7059.83,-18050.7 16703.7,-19005.8c9578.17,-934.567 18372.6,5736.38 20054.2,15211.9c-5.762,-417.709 -25.625,-835.121 -59.562,-1251.49c-0,-0.017 -0.021,-0.017 -0.021,-0.033c-991.021,-10121.8 -10135.5,-17635.2 -20257.3,-16644.2l-0.05,-0l-0.017,0.104l0.038,0.008Z" style="fill:#ffcd0e;stroke:#7f6d43;stroke-width:174.21px;"/><path id="path8391" serif:id="path839" d="M101099,28508l-17232.5,8988.25l-1733.5,-4741.08l18966,-4247.21l0.004,0.042Z" style="fill:#ffcd0e;stroke:#7f6d43;stroke-width:174.21px;"/><path id="path8411" serif:id="path841" d="M79232.1,8167.33l-5665,18591.8l-4596.88,-2086.03l5130.96,-8252.92l5130.92,-8252.92l0,0.025Z" style="fill:#ffcd0e;stroke:#7f6d43;stroke-width:174.21px;"/><path id="path8431" serif:id="path843" d="M41577,11721.9l6653.38,7083.08l6653.38,7083.04l-4097.05,2949.08l-9209.67,-17115.2l-0.033,-0.037Z" style="fill:#ffcd0e;stroke:#7f6d43;stroke-width:174.21px;"/><path id="path8451" serif:id="path845" d="M23433.8,35837.7l9712.25,330.037l9712.25,330.017l-412.584,2490.09l-412.587,2490.07l-18599.3,-5640.21l0.005,-0Z" style="fill:#ffcd0e;stroke:#7f6d43;stroke-width:174.21px;"/><path id="path8471" serif:id="path847" d="M39633.8,26518.1l4377,1962.99l4377.04,1962.98l-3204.7,3900.35l-5549.33,-7826.33l-0.004,0.012Z" style="fill:#ffcd0e;stroke:#7f6d43;stroke-width:174.21px;"/><path id="path8491" serif:id="path849" d="M61035.4,14998.8l3413.96,8966.12l-5024.04,491.909l1610.07,-9458.04l0.013,0.008Z" style="fill:#ffcd0e;stroke:#7f6d43;stroke-width:174.21px;"/><path id="path8511" serif:id="path851" d="M84173.3,22673.5l-2108.3,4308.92l-2108.3,4308.92l-3790.98,-3333.39l8007.58,-5284.46l-0.013,0.012Z" style="fill:#ffcd0e;stroke:#7f6d43;stroke-width:174.21px;"/></g></g><g><g id="g15011" serif:id="g1501"><g id="g12331" serif:id="g1233"><path id="path12141" serif:id="path1214" d="M106358,30606.2c1124.51,1082.33 1637.83,2118.73 1811.34,3129.04c213.313,1242.17 -88.404,2449.48 -416.321,3653.58c-327.916,1204.1 -682.083,2404.58 -559.983,3631.56c70.471,708.055 302.188,1423.77 785.762,2150.87c-1186.28,-1123.72 -1658.89,-2205.15 -1765.03,-3271.91c-119.929,-1205.05 229.583,-2395.42 557.796,-3600.62c328.229,-1205.23 635.329,-2426.34 418.142,-3691.04c-112.571,-655.575 -368.509,-1321.62 -831.7,-2001.48Z" style="fill:#0055d4;fill-rule:nonzero;"/><path id="path12291" serif:id="path1229" d="M108646,31545.2c1124.53,1082.31 1637.85,2118.73 1811.35,3129.05c213.3,1242.17 -88.4,2449.48 -416.317,3653.57c-327.916,1204.1 -682.083,2404.58 -559.983,3631.56c70.45,708.037 302.171,1423.75 785.763,2150.85c-1186.3,-1123.7 -1658.89,-2205.14 -1765.05,-3271.89c-119.913,-1205.05 229.583,-2395.42 557.812,-3600.62c328.229,-1205.23 635.313,-2426.34 418.142,-3691.04c-112.588,-655.571 -368.509,-1321.63 -831.721,-2001.48Z" style="fill:#0055d4;fill-rule:nonzero;"/></g><g id="g14771" serif:id="g1477"><g id="g12711" serif:id="g1271"><path id="path12511" serif:id="path1251" d="M117399,47454.6c-1098.25,0.188 -1990.02,887.55 -1995.7,1985.76c647.729,-383.35 1057.69,-1069.46 1792.02,-1089.45c719.983,-0.067 1303.66,583.558 1303.68,1303.53c-0.296,388.404 -173.925,756.408 -473.367,1003.75l328.609,545.054c641.562,-349.621 1040.83,-1021.84 1040.92,-1752.48c0.054,-1102.47 -893.696,-1996.22 -1996.16,-1996.16Z" style="fill:#0055d4;"/><path id="path12611" serif:id="path1261" d="M114638,53658.8c2549.03,-2191.77 3342.88,-2913.35 3445.38,-2994.57c54.896,-43.508 329.808,459.288 329.808,459.288l-3775.19,2535.28Z" style="fill:#0055d4;fill-rule:nonzero;stroke:#0055d4;stroke-width:80.75px;stroke-linejoin:miter;stroke-miterlimit:4;"/></g><path id="path12651" serif:id="path1265" d="M104439,46598.8l11230.3,0" style="fill:none;fill-rule:nonzero;stroke:#0055d4;stroke-width:1363.04px;stroke-linejoin:miter;stroke-miterlimit:4;"/><path id="path12671" serif:id="path1267" d="M112311,56239.2c927.604,-2981.21 2572.97,-5790.08 1632.48,-9017.92l1682.4,17.829c171.496,3513.42 -1866.92,6122.83 -3314.88,9000.08l0,0.004Z" style="fill:#0055d4;fill-rule:nonzero;stroke:#0055d4;stroke-width:80.75px;stroke-linejoin:miter;stroke-miterlimit:4;"/><path id="path12731" serif:id="path1273" d="M104379,57267.1l12750.8,0l-2047.36,615.763l-9661.71,-0l-1041.73,-615.763l-0.029,0Z" style="fill:#0055d4;fill-rule:nonzero;"/></g></g><g><path d="M22041.4,39213.6c-115.251,-0 -238.733,3.658 -370.448,10.976c-281.723,14.635 -491.644,50.308 -629.762,107.018c-138.117,56.711 -251.996,154.582 -341.635,293.615c-82.322,128.056 -145.435,301.846 -189.34,521.371l-63.114,-5.488l49.394,-1012.56l3712.71,-0l49.393,1012.56l-63.114,5.488c-49.393,-254.283 -126.684,-446.825 -231.873,-577.625c-105.189,-130.8 -258.398,-224.555 -459.63,-281.266c-170.131,-49.393 -458.257,-74.089 -864.378,-74.089l-0,2798.94c-0,186.596 10.519,325.171 31.556,415.725c21.038,90.554 59.912,165.101 116.623,223.641c51.222,53.052 109.305,91.468 174.248,115.25c64.943,23.782 149.551,38.417 253.825,43.905l0,63.114l-1753.45,-0l0,-63.114c106.104,-5.488 191.627,-20.123 256.57,-43.905c64.943,-23.782 123.025,-62.198 174.248,-115.25c56.71,-58.54 95.584,-132.63 116.622,-222.269c21.038,-89.639 31.557,-228.672 31.557,-417.097l-0,-2798.94Z" style="fill-rule:nonzero;stroke:#0055d4;stroke-width:7.29px;"/><path d="M25594.9,40871l1948.28,0l-0,-880.843c-0,-188.425 -10.519,-327.457 -31.557,-417.097c-21.038,-89.639 -59.912,-163.728 -116.623,-222.268c-51.222,-53.052 -109.305,-91.469 -174.247,-115.251c-64.943,-23.782 -150.466,-38.417 -256.57,-43.905l0,-63.113l1753.45,-0l0,63.113c-104.274,5.488 -188.883,20.123 -253.825,43.905c-64.943,23.782 -123.026,62.199 -174.248,115.251c-56.711,58.54 -95.585,133.086 -116.623,223.64c-21.037,90.554 -31.556,229.129 -31.556,415.725l-0,2022.37c-0,186.596 10.519,324.714 31.556,414.353c21.038,89.639 59.912,164.644 116.623,225.013c51.222,51.222 109.305,89.182 174.248,113.878c64.942,24.697 149.551,39.789 253.825,45.277l0,63.114l-1753.45,-0l0,-63.114c106.104,-5.488 191.627,-20.58 256.57,-45.277c64.942,-24.696 123.025,-62.656 174.247,-113.878c56.711,-58.54 95.585,-132.63 116.623,-222.269c21.038,-89.639 31.557,-228.672 31.557,-417.097l-0,-1012.56l-1948.28,0l-0,1012.56c-0,186.596 10.519,325.171 31.556,415.725c21.038,90.554 59.912,165.101 116.623,223.641c49.393,51.222 106.561,89.182 171.504,113.878c64.942,24.697 150.465,39.789 256.569,45.277l0,63.114l-1753.45,-0l0,-63.114c106.104,-5.488 191.627,-20.58 256.57,-45.277c64.942,-24.696 122.11,-62.656 171.503,-113.878c58.54,-58.54 97.872,-132.63 117.995,-222.269c20.123,-89.639 30.185,-228.672 30.185,-417.097l-0,-2022.37c-0,-188.425 -10.062,-327.457 -30.185,-417.097c-20.123,-89.639 -59.455,-163.728 -117.995,-222.268c-49.393,-53.052 -107.018,-91.469 -172.875,-115.251c-65.858,-23.782 -150.924,-38.417 -255.198,-43.905l0,-63.113l1753.45,-0l0,63.113c-104.274,5.488 -188.883,20.123 -253.825,43.905c-64.943,23.782 -123.026,62.199 -174.248,115.251c-56.711,58.54 -95.585,133.086 -116.623,223.64c-21.037,90.554 -31.556,229.129 -31.556,415.725l-0,880.843Z" style="fill-rule:nonzero;stroke:#0055d4;stroke-width:7.29px;"/><path d="M31939.2,39128.5l46.649,905.539l-63.114,2.744c-23.782,-153.667 -63.113,-280.808 -117.994,-381.424c-54.881,-100.615 -134.459,-189.34 -238.733,-266.174c-85.981,-64.028 -187.511,-109.305 -304.591,-135.831c-117.08,-26.525 -272.577,-39.788 -466.49,-39.788l-628.39,-0l0,1646.43l164.644,0c166.473,0 291.785,-10.976 375.936,-32.929c84.151,-21.952 152.753,-61.284 205.804,-117.994c51.223,-53.052 89.182,-115.708 113.879,-187.968c24.696,-72.26 45.277,-178.821 61.741,-319.683l63.114,2.744l-10.977,1470.82l-63.113,-0c-16.464,-140.862 -40.704,-254.283 -72.718,-340.264c-32.014,-85.98 -76.376,-159.155 -133.086,-219.524c-54.882,-58.54 -126.227,-101.531 -214.037,-128.971c-87.81,-27.441 -199.402,-41.161 -334.775,-41.161l-156.412,0l0,628.39c0,250.624 6.403,433.104 19.209,547.439c12.805,114.336 37.502,209.921 74.089,286.755c62.199,131.714 156.869,228.214 284.01,289.498c127.142,61.284 294.987,91.926 503.535,91.926c219.525,-0 403.377,-27.898 551.556,-83.694c148.179,-55.796 268.918,-142.234 362.216,-259.314c65.857,-78.663 119.367,-168.302 160.528,-268.917c41.16,-100.616 79.12,-233.245 113.878,-397.889l63.113,2.744l-35.672,1092.14l-3273.66,-0l-0,-63.114c104.274,-5.488 188.883,-20.123 253.825,-43.905c64.943,-23.782 123.026,-62.198 174.248,-115.25c56.711,-58.54 95.585,-133.087 116.623,-223.641c21.037,-90.554 31.556,-229.129 31.556,-415.725l0,-2022.37c0,-186.596 -10.519,-325.171 -31.556,-415.725c-21.038,-90.554 -59.912,-165.1 -116.623,-223.64c-49.393,-53.052 -106.561,-91.469 -171.504,-115.251c-64.942,-23.782 -150.465,-38.417 -256.569,-43.905l-0,-63.113l2949.86,-0Z" style="fill-rule:nonzero;stroke:#0055d4;stroke-width:7.29px;"/><g><path d="M33066.3,51771.7c-0,-546.636 117.06,-1053.43 351.18,-1520.37c234.12,-466.945 575.545,-874.508 1024.28,-1222.69c334.921,-257.034 695.857,-454.7 1082.81,-592.997c386.949,-138.298 777.149,-207.447 1170.6,-207.447c500.757,0 985.255,109.82 1453.5,329.46c468.241,219.64 877.951,529.59 1229.13,929.85c572.294,650.74 858.44,1391 858.44,2220.79c0,416.519 -74.788,818.379 -224.365,1205.58c-149.576,387.202 -367.438,740.262 -653.585,1059.18c-351.18,396.957 -766.581,704.443 -1246.2,922.457c-479.621,218.015 -981.191,327.022 -1504.71,327.022c-517.016,-0 -1011.27,-105.756 -1482.76,-317.267c-471.492,-211.51 -877.951,-510.867 -1219.38,-898.07c-269.888,-302.608 -477.182,-646.713 -621.881,-1032.32c-144.699,-385.603 -217.049,-786.663 -217.049,-1203.18Zm1180.36,73.239c0,943.695 256.882,1739.31 770.646,2386.85c230.868,289.602 475.556,500.3 734.064,632.094c258.508,131.794 556.848,197.691 895.022,197.691c341.425,0 641.391,-65.084 899.899,-195.252c258.508,-130.169 504.821,-341.68 738.942,-634.533c513.763,-650.791 770.645,-1452.91 770.645,-2406.36c-0,-523.926 -70.724,-1019.36 -212.171,-1486.31c-141.448,-466.945 -340.613,-863.127 -597.495,-1188.55c-208.106,-266.79 -439.788,-461.204 -695.044,-583.243c-255.256,-122.039 -556.848,-183.059 -904.776,-183.059c-344.677,0 -643.018,60.194 -895.022,180.582c-252.004,120.388 -485.311,315.628 -699.922,585.72c-256.881,322.169 -455.233,717.539 -595.055,1186.11c-139.822,468.571 -209.733,971.322 -209.733,1508.25Z" style="fill-rule:nonzero;"/><path d="M43987,48398.9l-0,112.182c-185.345,9.755 -336.548,35.769 -453.608,78.04c-117.06,42.272 -219.487,110.557 -307.283,204.856c-107.305,110.556 -178.028,247.126 -212.171,409.71c-34.142,162.583 -51.214,442.227 -51.214,838.93l0,2760.67c0,448.73 17.072,773.084 51.214,973.061c34.143,199.978 103.241,384.51 207.294,553.597c156.08,256.882 348.741,443.04 577.984,558.474c229.243,115.434 517.828,173.151 865.757,173.151c338.173,0 660.901,-51.214 968.184,-153.641c307.283,-102.428 563.351,-244.688 768.207,-426.782c126.815,-113.808 220.3,-237.371 280.456,-370.69c60.156,-133.318 99.989,-302.405 119.499,-507.26c13.006,-133.319 19.51,-448.73 19.51,-946.236l-0,-2726.52c-0,-334.922 -18.697,-582.049 -56.091,-741.381c-37.395,-159.332 -106.493,-291.024 -207.294,-395.077c-91.047,-94.299 -194.288,-162.584 -309.722,-204.856c-115.434,-42.271 -265.824,-68.285 -451.169,-78.04l0,-112.182l2248.53,-0l-0,112.182c-185.345,9.755 -335.735,35.769 -451.169,78.04c-115.434,42.272 -218.675,110.557 -309.721,204.856c-100.802,104.053 -169.9,236.558 -207.294,397.516c-37.394,160.958 -56.092,407.271 -56.092,738.942l0,3077.7c0,455.233 -34.955,790.968 -104.866,1007.2c-69.911,216.236 -208.92,413.775 -417.026,592.616c-474.744,409.711 -1152.72,614.566 -2033.92,614.566c-920.222,-0 -1598.19,-193.475 -2033.92,-580.423c-282.896,-247.127 -451.982,-572.294 -507.261,-975.501c-19.51,-143.073 -29.265,-401.581 -29.265,-775.522l0,-2960.64c0,-334.922 -17.884,-582.049 -53.652,-741.381c-35.769,-159.332 -105.679,-291.024 -209.733,-395.077c-87.795,-94.299 -189.409,-162.584 -304.844,-204.856c-115.434,-42.271 -267.449,-68.285 -456.046,-78.04l-0,-112.182l3116.72,-0Z" style="fill-rule:nonzero;"/><path d="M49683.9,49281.7l-0,4243.43c-0,334.922 18.697,582.048 56.091,741.38c37.394,159.332 106.492,291.025 207.294,395.078c91.047,94.298 194.287,162.583 309.721,204.855c115.435,42.272 265.824,68.285 451.169,78.04l0,112.183l-2248.53,-0l-0,-112.183c185.345,-9.755 335.734,-35.768 451.169,-78.04c115.434,-42.272 218.674,-110.557 309.721,-204.855c100.802,-104.053 169.9,-236.559 207.294,-397.516c37.394,-160.958 56.091,-407.272 56.091,-738.942l0,-3599.6c0,-328.418 -18.697,-573.106 -56.091,-734.064c-37.394,-160.958 -106.492,-293.463 -207.294,-397.516c-87.795,-94.299 -189.41,-162.584 -304.844,-204.856c-115.434,-42.271 -267.45,-68.285 -456.046,-78.04l-0,-112.182l1877.84,-0l3960.53,5053.09l0,-3521.56c0,-334.922 -18.697,-582.049 -56.091,-741.381c-37.394,-159.332 -106.492,-291.024 -207.294,-395.077c-91.047,-94.299 -194.287,-162.584 -309.722,-204.856c-115.434,-42.271 -265.823,-68.285 -451.168,-78.04l-0,-112.182l2248.53,-0l0,112.182c-325.167,0 -578.797,94.299 -760.89,282.896c-100.802,104.053 -169.9,236.558 -207.294,397.516c-37.394,160.958 -56.091,405.646 -56.091,734.064l-0,5131.13l-219.488,-0l-4594.61,-5774.96Z" style="fill-rule:nonzero;"/><path d="M58639,48550.1c-204.855,0 -424.343,6.504 -658.463,19.51c-500.756,26.014 -873.885,89.421 -1119.39,190.223c-245.501,100.802 -447.918,274.766 -607.249,521.893c-146.326,227.617 -258.508,536.525 -336.548,926.725l-112.183,-9.755l87.795,-1799.8l6599.26,-0l87.795,1799.8l-112.182,9.755c-87.795,-451.982 -225.178,-794.22 -412.149,-1026.71c-186.971,-232.494 -459.298,-399.142 -816.982,-499.944c-302.405,-87.795 -814.543,-131.693 -1536.41,-131.693l-0,4975.05c-0,331.67 18.697,577.984 56.091,738.942c37.394,160.957 106.492,293.463 207.294,397.516c91.047,94.298 194.287,162.583 309.721,204.855c115.435,42.272 265.824,68.285 451.169,78.04l0,112.183l-3116.72,-0l0,-112.183c188.597,-9.755 340.612,-35.768 456.047,-78.04c115.434,-42.272 218.674,-110.557 309.721,-204.855c100.802,-104.053 169.9,-235.746 207.294,-395.078c37.394,-159.332 56.091,-406.458 56.091,-741.38l0,-4975.05Z" style="fill-rule:nonzero;"/><path d="M64955.4,51798.5l-0,1726.64c-0,331.67 18.697,577.984 56.091,738.942c37.394,160.957 106.492,293.463 207.294,397.516c87.795,91.047 189.41,158.519 304.844,202.416c115.434,43.898 267.45,70.724 456.046,80.479l0,112.183l-3116.72,-0l0,-112.183c188.597,-9.755 340.613,-36.581 456.047,-80.479c115.434,-43.897 217.049,-111.369 304.844,-202.416c104.053,-104.053 173.964,-235.746 209.732,-395.078c35.769,-159.332 53.653,-406.458 53.653,-741.38l-0,-3594.72c-0,-334.922 -17.884,-582.049 -53.653,-741.381c-35.768,-159.332 -105.679,-291.024 -209.732,-395.077c-87.795,-94.299 -190.223,-162.584 -307.283,-204.856c-117.06,-42.271 -268.263,-68.285 -453.608,-78.04l0,-112.182l2350.96,-0c393.452,-0 651.96,1.626 775.523,4.877c504.009,22.762 899.087,91.047 1185.23,204.855c321.916,130.067 571.481,324.354 748.697,582.862c177.216,258.508 265.824,558.474 265.824,899.899c-0,507.26 -191.848,913.719 -575.545,1219.38c-117.06,91.046 -246.314,165.835 -387.762,224.365c-141.447,58.53 -330.857,113.808 -568.229,165.835c195.1,81.292 339.8,165.835 434.098,253.63c74.788,68.285 143.073,153.641 204.855,256.069c61.782,102.428 154.454,283.708 278.018,543.842c289.398,595.055 508.073,1029.96 656.024,1304.73c147.951,274.766 272.327,473.931 373.129,597.494c81.291,100.802 160.144,170.713 236.559,209.733c76.414,39.02 181.28,65.033 314.598,78.04l0,112.183l-1619.33,-0c-81.292,-178.842 -133.319,-292.65 -156.08,-341.426l-341.426,-775.522c-204.855,-464.989 -411.336,-876.325 -619.442,-1234.01c-208.107,-354.431 -398.33,-596.681 -570.668,-726.747c-87.795,-65.034 -182.094,-111.37 -282.895,-139.009c-100.802,-27.639 -224.365,-41.459 -370.691,-41.459l-238.997,0Zm-0,-107.305l185.345,-0c403.207,-0 691.792,-22.762 865.757,-68.285c173.964,-45.523 337.36,-139.822 490.189,-282.895c341.425,-325.167 512.137,-728.374 512.137,-1209.62c0,-256.882 -49.588,-498.318 -148.763,-724.309c-99.176,-225.991 -236.559,-412.149 -412.149,-558.474c-136.57,-110.557 -299.154,-187.784 -487.751,-231.681c-188.596,-43.898 -456.859,-65.847 -804.788,-65.847l-199.977,0l-0,3141.11Z" style="fill-rule:nonzero;"/><path d="M70920.6,55056.7l0,-112.183c185.345,-9.755 336.548,-35.768 453.608,-78.04c117.06,-42.272 221.114,-110.557 312.16,-204.855c100.802,-104.053 169.087,-235.746 204.855,-395.078c35.769,-159.332 53.653,-406.458 53.653,-741.38l4.877,-951.113c0,-136.57 -27.639,-287.773 -82.917,-453.608c-61.782,-191.848 -188.597,-432.472 -380.445,-721.87l-1263.27,-1897.35l-224.365,-341.425c-165.835,-247.127 -328.418,-416.213 -487.75,-507.26c-81.292,-48.775 -162.583,-82.918 -243.875,-102.428c-81.292,-19.51 -195.1,-32.516 -341.425,-39.02l-0,-112.182l3180.13,-0l0,112.182c-269.888,16.259 -442.226,40.646 -517.015,73.163c-182.093,78.04 -273.14,219.488 -273.14,424.343c0,74.788 20.323,159.331 60.969,253.63c40.646,94.298 106.492,212.984 197.539,356.057l1321.8,2068.06l1131.58,-1765.65l126.815,-199.978c120.312,-188.597 180.468,-373.942 180.468,-556.035c0,-208.107 -66.659,-369.065 -199.978,-482.873c-133.318,-113.808 -320.289,-170.713 -560.912,-170.713l-0,-112.182l2243.65,-0l-0,112.182c-169.087,19.51 -299.154,47.962 -390.2,85.357c-91.047,37.394 -183.72,98.363 -278.018,182.906c-221.113,208.107 -466.614,518.641 -736.503,931.603l-1112.07,1697.37c-133.319,201.603 -214.611,349.554 -243.876,443.853c-29.265,94.298 -43.897,253.63 -43.897,477.995l-0,1194.99c-0,347.928 17.071,597.494 51.214,748.697c34.142,151.202 103.24,280.456 207.294,387.761c178.841,188.597 434.097,282.895 765.767,282.895l0,112.183l-3116.72,-0Z" style="fill-rule:nonzero;"/><path d="M32900.7,43917l135.996,5065.84l-260.658,-0c-83.109,-219.104 -147.329,-385.321 -192.661,-498.651c-264.436,-725.31 -479.762,-1265.52 -645.979,-1620.61c-294.657,-634.646 -721.532,-1216.4 -1280.62,-1745.28c-423.098,-400.432 -861.306,-691.311 -1314.62,-872.639c-453.319,-181.327 -963.303,-271.991 -1529.95,-271.991c-853.75,0 -1594.17,185.105 -2221.26,555.316c-551.537,324.878 -1065.3,791.418 -1541.28,1399.62c-475.985,608.203 -865.083,1301.4 -1167.3,2079.6c-430.652,1095.52 -645.979,2342.15 -645.979,3739.88c0,1186.18 147.329,2255.26 441.986,3207.23c294.657,951.97 725.31,1749.06 1291.96,2391.26c1042.63,1193.74 2425.26,1790.61 4147.87,1790.61c861.306,0 1635.73,-149.217 2323.26,-447.652c687.534,-298.435 1220.18,-719.643 1597.95,-1263.63c438.208,-627.091 755.531,-1473.29 951.969,-2538.58l260.658,45.331c-143.551,1193.74 -468.429,2141.93 -974.635,2844.58c-483.54,672.423 -1150.3,1186.18 -2000.27,1541.28c-849.972,355.099 -1834.05,532.649 -2952.24,532.649c-1042.63,0 -2039.93,-154.884 -2991.9,-464.651c-1518.62,-498.651 -2704.8,-1399.62 -3558.55,-2702.91c-853.75,-1303.29 -1280.62,-2857.8 -1280.62,-4663.52c0,-1382.62 249.325,-2657.58 747.976,-3824.88c498.651,-1167.3 1193.74,-2106.04 2085.27,-2816.24c687.533,-543.982 1509.17,-976.524 2464.92,-1297.62c955.747,-321.1 1913.38,-481.651 2872.91,-481.651c914.193,0 1881.27,173.772 2901.24,521.317l929.303,305.99c181.328,67.998 339.989,101.997 475.985,101.997c188.883,-0 343.767,-79.331 464.652,-237.993c52.887,-75.553 117.107,-200.215 192.66,-373.988l271.991,0Z" style="fill-rule:nonzero;"/><g><path d="M98939.7,55054.2l-3204.52,-0l-0,-112.183c289.398,-26.013 491.002,-74.788 604.81,-146.325c201.604,-126.815 302.405,-302.405 302.405,-526.77c0,-133.319 -45.523,-312.16 -136.57,-536.525l-82.917,-204.856l-468.24,-1151.09l-2146.1,-0l-253.63,673.095l-121.937,302.405c-146.325,357.684 -219.488,638.953 -219.488,843.808c0,120.312 26.826,232.494 80.479,336.548c53.652,104.053 126.002,188.597 217.049,253.63c126.815,87.795 289.398,139.822 487.75,156.08l0,112.183l-2185.12,-0l-0,-112.183c172.338,-9.755 323.541,-52.027 453.608,-126.815c130.066,-74.788 256.881,-195.1 380.445,-360.935c104.053,-133.319 205.668,-304.844 304.844,-514.577c99.176,-209.732 230.055,-524.331 392.639,-943.796l1785.17,-4599.48l278.017,-0l2121.71,5126.26c159.332,386.948 286.147,663.34 380.445,829.175c94.298,165.835 196.726,291.025 307.283,375.568c78.04,58.53 167.461,103.24 268.262,134.131c100.802,30.891 252.005,57.717 453.608,80.479l0,112.183Zm-3063.07,-2877.73l-1024.28,-2526.55l-965.746,2526.55l1990.02,0Z" style="fill-rule:nonzero;"/><path d="M101169,51576.5l-0,1946.12c-0,331.67 17.884,576.358 53.652,734.064c35.769,157.706 104.054,290.211 204.855,397.516c87.795,94.299 191.036,163.397 309.722,207.294c118.686,43.898 270.701,70.724 456.046,80.479l0,112.183l-3116.72,-0l0,-112.183c156.08,0 304.031,-25.2 443.853,-75.601c139.822,-50.401 248.752,-117.873 326.792,-202.417c91.047,-100.801 156.081,-238.997 195.101,-414.587c39.02,-175.59 58.53,-417.84 58.53,-726.748l-0,-3594.72c-0,-208.107 -11.381,-424.343 -34.143,-648.708c-32.517,-286.147 -172.338,-499.131 -419.465,-638.953c-136.57,-74.788 -326.793,-118.686 -570.668,-131.693l0,-112.182l5096.99,-0l141.448,1585.19l-112.183,24.388c-81.292,-247.127 -156.08,-432.472 -224.365,-556.036c-152.828,-282.895 -367.438,-502.382 -643.83,-658.462c-159.332,-91.047 -343.051,-154.455 -551.158,-190.223c-208.107,-35.768 -494.254,-53.653 -858.44,-53.653l-756.013,0l-0,2877.73l195.1,-0c575.545,-0 993.384,-128.441 1253.52,-385.323c113.808,-110.557 199.977,-241.436 258.507,-392.639c58.531,-151.202 97.551,-348.741 117.061,-592.616l112.182,4.877l-29.265,2955.77l-117.06,-0c-35.768,-331.671 -96.737,-587.739 -182.906,-768.207c-86.169,-180.468 -217.049,-325.98 -392.639,-436.536c-130.067,-81.292 -290.212,-140.635 -480.434,-178.029c-190.223,-37.395 -434.911,-56.092 -734.064,-56.092Z" style="fill-rule:nonzero;"/><path d="M109758,48396.4l82.918,1609.58l-112.183,4.877c-42.271,-273.14 -112.182,-499.131 -209.732,-677.973c-97.55,-178.841 -238.998,-336.547 -424.343,-473.117c-152.828,-113.809 -333.296,-194.288 -541.403,-241.437c-208.106,-47.149 -484.498,-70.724 -829.175,-70.724l-1116.95,0l-0,2926.5l292.65,-0c295.902,-0 518.641,-19.51 668.218,-58.53c149.577,-39.02 271.514,-108.931 365.813,-209.733c91.046,-94.298 158.518,-205.668 202.416,-334.109c43.897,-128.441 80.479,-317.85 109.744,-568.229l112.182,4.878l-19.51,2614.34l-112.182,0c-29.265,-250.378 -72.35,-451.982 -129.254,-604.81c-56.904,-152.829 -135.757,-282.895 -236.559,-390.2c-97.55,-104.054 -224.365,-180.468 -380.445,-229.243c-156.08,-48.775 -354.432,-73.163 -595.056,-73.163l-278.017,0l-0,1116.95c-0,445.478 11.381,769.832 34.142,973.061c22.762,203.229 66.66,373.129 131.693,509.699c110.557,234.12 278.831,405.646 504.821,514.577c225.991,108.931 524.332,163.396 895.022,163.396c390.2,0 716.993,-49.588 980.378,-148.764c263.385,-99.176 477.995,-252.817 643.83,-460.924c117.061,-139.821 212.172,-299.153 285.334,-477.995c73.163,-178.842 140.635,-414.588 202.417,-707.238l112.182,4.878l-63.407,1941.25l-5818.86,-0l0,-112.183c185.345,-9.755 335.735,-35.768 451.169,-78.04c115.435,-42.272 218.675,-110.557 309.722,-204.855c100.801,-104.053 169.899,-236.559 207.294,-397.516c37.394,-160.958 56.091,-407.272 56.091,-738.942l-0,-3594.72c-0,-331.671 -18.697,-577.984 -56.091,-738.942c-37.395,-160.958 -106.493,-293.463 -207.294,-397.516c-87.795,-94.299 -189.41,-162.584 -304.844,-204.856c-115.434,-42.271 -267.45,-68.285 -456.047,-78.04l0,-112.182l5243.32,-0Z" style="fill-rule:nonzero;"/><path d="M91143.6,43917l135.996,5065.84l-260.659,-0c-83.108,-219.104 -147.328,-385.321 -192.66,-498.651c-264.436,-725.31 -479.762,-1265.52 -645.979,-1620.61c-294.657,-634.646 -721.532,-1216.4 -1280.63,-1745.28c-423.097,-400.432 -861.305,-691.311 -1314.62,-872.639c-453.318,-181.327 -963.302,-271.991 -1529.95,-271.991c-853.75,0 -1594.17,185.105 -2221.26,555.316c-551.537,324.878 -1065.3,791.418 -1541.28,1399.62c-475.985,608.203 -865.083,1301.4 -1167.3,2079.6c-430.653,1095.52 -645.979,2342.15 -645.979,3739.88c-0,1186.18 147.328,2255.26 441.986,3207.23c294.657,951.97 725.31,1749.06 1291.96,2391.26c1042.63,1193.74 2425.26,1790.61 4147.87,1790.61c861.305,0 1635.73,-149.217 2323.26,-447.652c687.533,-298.435 1220.18,-719.643 1597.95,-1263.63c438.209,-627.091 755.532,-1473.29 951.97,-2538.58l260.658,45.331c-143.551,1193.74 -468.429,2141.93 -974.635,2844.58c-483.54,672.423 -1150.3,1186.18 -2000.27,1541.28c-849.972,355.099 -1834.05,532.649 -2952.24,532.649c-1042.63,0 -2039.93,-154.884 -2991.9,-464.651c-1518.62,-498.651 -2704.8,-1399.62 -3558.55,-2702.91c-853.75,-1303.29 -1280.62,-2857.8 -1280.62,-4663.52c-0,-1382.62 249.325,-2657.58 747.976,-3824.88c498.65,-1167.3 1193.74,-2106.04 2085.27,-2816.24c687.533,-543.982 1509.17,-976.524 2464.92,-1297.62c955.747,-321.1 1913.38,-481.651 2872.91,-481.651c914.193,0 1881.27,173.772 2901.24,521.317l929.303,305.99c181.328,67.998 339.989,101.997 475.985,101.997c188.882,-0 343.766,-79.331 464.651,-237.993c52.888,-75.553 117.108,-200.215 192.661,-373.988l271.991,0Z" style="fill-rule:nonzero;"/></g></g></g></g></g><g><path d="M31081.4,67659.1l0,1040.04c0,138.179 -13.571,248.598 -40.713,331.259c-27.142,82.66 -77.109,157.301 -149.899,223.923c-72.791,66.622 -165.938,130.776 -279.442,192.463c-328.174,177.658 -644.011,307.201 -947.51,388.627c-303.5,81.427 -634.141,122.14 -991.925,122.14c-417.003,0 -796.994,-64.154 -1139.97,-192.463c-342.979,-128.308 -635.374,-314.603 -877.187,-558.883c-241.812,-244.28 -427.49,-540.377 -557.032,-888.291c-129.543,-347.914 -194.314,-736.541 -194.314,-1165.88c-0,-421.938 62.921,-808.098 188.762,-1158.48c125.841,-350.382 310.902,-647.713 555.182,-891.993c244.28,-244.28 541.61,-431.191 891.992,-560.733c350.381,-129.543 747.645,-194.314 1191.79,-194.314c365.187,0 688.426,48.733 969.718,146.198c281.292,97.465 509.534,220.222 684.724,368.271c175.191,148.048 307.201,304.733 396.03,470.054c88.829,165.32 133.244,312.135 133.244,440.444c-0,138.178 -51.2,256 -153.601,353.466c-102.4,97.465 -225.157,146.198 -368.27,146.198c-78.959,-0 -154.834,-18.506 -227.625,-55.519c-72.79,-37.012 -133.86,-88.829 -183.21,-155.451c-135.711,-212.202 -250.449,-372.588 -344.213,-481.157c-93.764,-108.569 -220.222,-199.866 -379.374,-273.89c-159.152,-74.024 -362.102,-111.036 -608.849,-111.036c-254.15,-0 -481.158,43.797 -681.023,131.393c-199.866,87.595 -370.739,214.67 -512.618,381.225c-141.88,166.554 -250.449,370.738 -325.707,612.55c-75.258,241.813 -112.887,509.534 -112.887,803.163c-0,636.609 146.198,1126.4 438.594,1469.38c292.395,342.979 700.146,514.468 1223.25,514.468c254.15,0 492.879,-33.31 716.185,-99.932c223.307,-66.622 449.697,-161.62 679.172,-284.994l0,-880.888l-851.278,-0c-204.801,-0 -359.635,-30.844 -464.503,-92.531c-104.867,-61.686 -157.301,-166.554 -157.301,-314.603c-0,-120.906 43.798,-220.839 131.393,-299.798c87.595,-78.959 206.651,-118.439 357.167,-118.439l1247.31,0c152.983,0 282.526,13.571 388.627,40.714c106.101,27.142 191.846,87.595 257.234,181.359c65.388,93.764 98.082,234.41 98.082,421.938Z" style="fill:#0b48cb;fill-rule:nonzero;"/><path d="M34516.1,64346.5c562.584,0 1045.59,114.121 1449.02,342.362c403.432,228.242 708.782,552.715 916.05,973.419c207.268,420.705 310.902,914.816 310.902,1482.34c0,419.471 -56.752,800.695 -170.256,1143.67c-113.503,342.979 -283.759,640.31 -510.767,891.993c-227.008,251.682 -505.832,444.145 -836.474,577.389c-330.642,133.243 -709.399,199.865 -1136.27,199.865c-424.406,0 -804.397,-68.472 -1139.97,-205.417c-335.576,-136.945 -615.635,-330.025 -840.175,-579.24c-224.54,-249.215 -394.179,-549.013 -508.917,-899.394c-114.737,-350.382 -172.106,-729.139 -172.106,-1136.27c0,-417.003 59.836,-799.462 179.509,-1147.38c119.672,-347.914 293.012,-644.011 520.02,-888.291c227.008,-244.28 503.365,-431.191 829.072,-560.733c325.706,-129.543 695.828,-194.314 1110.36,-194.314Zm1561.91,2790.71c0,-397.263 -64.154,-741.476 -192.463,-1032.64c-128.308,-291.162 -311.518,-511.384 -549.63,-660.666c-238.111,-149.283 -511.384,-223.924 -819.818,-223.924c-219.606,0 -422.556,41.33 -608.85,123.991c-186.294,82.66 -346.68,202.95 -481.158,360.868c-134.477,157.918 -240.578,359.635 -318.304,605.148c-77.725,245.514 -116.588,521.254 -116.588,827.221c-0,308.435 38.863,587.259 116.588,836.474c77.726,249.215 187.528,455.866 329.408,619.953c141.88,164.088 304.733,286.844 488.56,368.271c183.827,81.427 385.543,122.14 605.148,122.14c281.293,0 539.761,-70.323 775.404,-210.969c235.644,-140.646 423.172,-357.784 562.585,-651.413c139.412,-293.63 209.118,-655.115 209.118,-1084.46Z" style="fill:#0b48cb;fill-rule:nonzero;"/><path d="M40519.5,64346.5c562.585,0 1045.59,114.121 1449.03,342.362c403.432,228.242 708.782,552.715 916.05,973.419c207.268,420.705 310.902,914.816 310.902,1482.34c0,419.471 -56.752,800.695 -170.256,1143.67c-113.504,342.979 -283.759,640.31 -510.767,891.993c-227.008,251.682 -505.832,444.145 -836.474,577.389c-330.642,133.243 -709.399,199.865 -1136.27,199.865c-424.406,0 -804.397,-68.472 -1139.97,-205.417c-335.576,-136.945 -615.635,-330.025 -840.175,-579.24c-224.54,-249.215 -394.179,-549.013 -508.917,-899.394c-114.737,-350.382 -172.106,-729.139 -172.106,-1136.27c-0,-417.003 59.836,-799.462 179.509,-1147.38c119.672,-347.914 293.012,-644.011 520.02,-888.291c227.008,-244.28 503.365,-431.191 829.072,-560.733c325.706,-129.543 695.828,-194.314 1110.36,-194.314Zm1561.91,2790.71c0,-397.263 -64.154,-741.476 -192.463,-1032.64c-128.309,-291.162 -311.519,-511.384 -549.63,-660.666c-238.111,-149.283 -511.384,-223.924 -819.819,-223.924c-219.605,0 -422.555,41.33 -608.849,123.991c-186.294,82.66 -346.68,202.95 -481.158,360.868c-134.477,157.918 -240.579,359.635 -318.304,605.148c-77.726,245.514 -116.588,521.254 -116.588,827.221c-0,308.435 38.862,587.259 116.588,836.474c77.725,249.215 187.528,455.866 329.408,619.953c141.88,164.088 304.733,286.844 488.56,368.271c183.827,81.427 385.543,122.14 605.148,122.14c281.292,0 539.76,-70.323 775.404,-210.969c235.644,-140.646 423.172,-357.784 562.585,-651.413c139.412,-293.63 209.118,-655.115 209.118,-1084.46Z" style="fill:#0b48cb;fill-rule:nonzero;"/><path d="M44816.6,64439l1432.37,0c372.589,0 692.127,34.545 958.614,103.634c266.488,69.09 508.3,198.632 725.438,388.628c565.052,483.625 847.578,1218.93 847.578,2205.92c-0,325.707 -28.376,623.038 -85.128,891.993c-56.752,268.954 -144.347,511.384 -262.786,727.288c-118.439,215.904 -270.189,408.984 -455.249,579.24c-145.581,130.776 -304.733,235.643 -477.457,314.603c-172.723,78.959 -358.4,134.477 -557.032,166.554c-198.632,32.077 -422.555,48.116 -671.77,48.116l-1432.37,-0c-199.865,-0 -350.381,-30.227 -451.548,-90.68c-101.166,-60.453 -167.171,-145.581 -198.014,-255.383c-30.844,-109.803 -46.266,-252.3 -46.266,-427.49l0,-3978.8c0,-236.878 53.051,-408.367 159.153,-514.468c106.101,-106.102 277.591,-159.153 514.468,-159.153Zm425.64,869.785l-0,3682.71l832.772,-0c182.594,-0 325.707,-4.935 429.341,-14.805c103.634,-9.87 210.969,-34.545 322.006,-74.024c111.036,-39.48 207.267,-94.998 288.694,-166.555c367.654,-310.902 551.481,-846.344 551.481,-1606.33c-0,-535.442 -80.81,-936.407 -242.43,-1202.89c-161.619,-266.487 -360.868,-436.126 -597.745,-508.917c-236.878,-72.79 -523.105,-109.186 -858.682,-109.186l-725.437,0Z" style="fill:#0b48cb;fill-rule:nonzero;"/><path d="M52748.3,65012.7l-0,1554.51l2372.48,-0l-0,-1554.51c-0,-222.072 49.966,-388.627 149.899,-499.663c99.933,-111.037 231.326,-166.555 394.179,-166.555c165.321,0 299.182,54.901 401.582,164.704c102.4,109.803 153.6,276.974 153.6,501.514l0,4274.9c0,224.54 -51.817,392.328 -155.451,503.365c-103.634,111.036 -236.877,166.554 -399.731,166.554c-165.321,0 -297.331,-56.135 -396.03,-168.405c-98.699,-112.27 -148.048,-279.441 -148.048,-501.514l-0,-1824.7l-2372.48,0l-0,1824.7c-0,224.54 -51.817,392.328 -155.451,503.365c-103.634,111.036 -236.878,166.554 -399.731,166.554c-165.321,0 -297.331,-56.135 -396.03,-168.405c-98.699,-112.27 -148.048,-279.441 -148.048,-501.514l-0,-4274.9c-0,-222.072 48.732,-388.627 146.197,-499.663c97.466,-111.037 230.092,-166.555 397.881,-166.555c165.321,0 299.181,54.901 401.581,164.704c102.401,109.803 153.601,276.974 153.601,501.514Z" style="fill:#0b48cb;fill-rule:nonzero;"/><path d="M59788,64346.5c562.584,0 1045.59,114.121 1449.03,342.362c403.432,228.242 708.782,552.715 916.05,973.419c207.268,420.705 310.902,914.816 310.902,1482.34c-0,419.471 -56.752,800.695 -170.256,1143.67c-113.504,342.979 -283.76,640.31 -510.767,891.993c-227.008,251.682 -505.833,444.145 -836.475,577.389c-330.641,133.243 -709.399,199.865 -1136.27,199.865c-424.405,0 -804.397,-68.472 -1139.97,-205.417c-335.577,-136.945 -615.635,-330.025 -840.175,-579.24c-224.541,-249.215 -394.18,-549.013 -508.917,-899.394c-114.738,-350.382 -172.107,-729.139 -172.107,-1136.27c0,-417.003 59.837,-799.462 179.509,-1147.38c119.673,-347.914 293.013,-644.011 520.021,-888.291c227.007,-244.28 503.364,-431.191 829.071,-560.733c325.707,-129.543 695.828,-194.314 1110.36,-194.314Zm1561.91,2790.71c-0,-397.263 -64.155,-741.476 -192.463,-1032.64c-128.309,-291.162 -311.519,-511.384 -549.63,-660.666c-238.112,-149.283 -511.385,-223.924 -819.819,-223.924c-219.605,0 -422.555,41.33 -608.85,123.991c-186.294,82.66 -346.68,202.95 -481.157,360.868c-134.478,157.918 -240.579,359.635 -318.304,605.148c-77.726,245.514 -116.589,521.254 -116.589,827.221c0,308.435 38.863,587.259 116.589,836.474c77.725,249.215 187.528,455.866 329.407,619.953c141.88,164.088 304.734,286.844 488.561,368.271c183.826,81.427 385.543,122.14 605.148,122.14c281.292,0 539.76,-70.323 775.404,-210.969c235.644,-140.646 423.172,-357.784 562.584,-651.413c139.413,-293.63 209.119,-655.115 209.119,-1084.46Z" style="fill:#0b48cb;fill-rule:nonzero;"/><path d="M65236.2,69047l-869.785,-3456.93l-0,3745.63c-0,207.268 -46.265,362.718 -138.796,466.352c-92.53,103.634 -215.287,155.451 -368.27,155.451c-148.049,0 -268.955,-51.2 -362.719,-153.6c-93.764,-102.4 -140.646,-258.468 -140.646,-468.203l-0,-4293.41c-0,-236.878 61.687,-396.647 185.06,-479.307c123.374,-82.66 289.929,-123.991 499.664,-123.991l340.512,0c204.8,0 353.466,18.506 445.996,55.519c92.53,37.012 161.003,103.634 205.417,199.865c44.415,96.232 94.998,252.916 151.75,470.054l788.358,2972.07l788.358,-2972.07c56.752,-217.138 107.336,-373.822 151.75,-470.054c44.415,-96.231 112.887,-162.853 205.417,-199.865c92.531,-37.013 241.196,-55.519 445.997,-55.519l340.511,0c209.736,0 376.29,41.331 499.664,123.991c123.374,82.66 185.06,242.429 185.06,479.307l0,4293.41c0,207.268 -46.265,362.718 -138.795,466.352c-92.53,103.634 -216.521,155.451 -371.972,155.451c-145.581,0 -265.253,-51.817 -359.018,-155.451c-93.764,-103.634 -140.646,-259.084 -140.646,-466.352l0,-3745.63l-869.785,3456.93c-56.751,224.54 -103.017,389.244 -138.795,494.112c-35.778,104.868 -101.783,200.482 -198.015,286.844c-96.231,86.361 -229.475,129.542 -399.731,129.542c-128.309,0 -236.877,-27.759 -325.707,-83.277c-88.829,-55.518 -157.918,-126.458 -207.267,-212.82c-49.35,-86.361 -88.213,-181.976 -116.589,-286.844c-28.376,-104.867 -57.368,-214.053 -86.978,-327.557Z" style="fill:#0b48cb;fill-rule:nonzero;"/><path d="M73293.7,65286.6l-2476.11,0l0,1332.44l2279.95,-0c167.789,-0 293.013,37.629 375.673,112.887c82.661,75.258 123.991,174.573 123.991,297.947c0,123.374 -40.713,223.924 -122.14,301.649c-81.427,77.725 -207.268,116.588 -377.524,116.588l-2279.95,0l0,1543.41l2561.24,-0c172.724,-0 302.883,40.096 390.478,120.289c87.596,80.193 131.393,186.911 131.393,320.155c0,128.309 -43.797,232.56 -131.393,312.753c-87.595,80.192 -217.754,120.289 -390.478,120.289l-2986.88,-0c-239.345,-0 -411.451,-53.051 -516.319,-159.152c-104.868,-106.102 -157.302,-277.591 -157.302,-514.469l0,-4078.74c0,-157.918 23.441,-286.844 70.323,-386.777c46.882,-99.932 120.29,-172.723 220.222,-218.371c99.933,-45.649 227.625,-68.473 383.076,-68.473l2901.75,0c175.19,0 305.35,38.863 390.478,116.589c85.127,77.725 127.691,179.508 127.691,305.35c0,128.308 -42.564,231.325 -127.691,309.051c-85.128,77.725 -215.288,116.588 -390.478,116.588Z" style="fill:#0b48cb;fill-rule:nonzero;"/><path d="M81292.1,68151.3c-0,172.723 -42.564,359.634 -127.692,560.733c-85.128,201.099 -218.988,398.497 -401.581,592.194c-182.594,193.697 -415.77,350.999 -699.53,471.905c-283.759,120.906 -614.401,181.359 -991.925,181.359c-286.227,0 -546.545,-27.142 -780.955,-81.426c-234.411,-54.285 -447.23,-138.796 -638.46,-253.533c-191.229,-114.738 -367.036,-265.871 -527.422,-453.399c-143.114,-170.256 -265.254,-360.868 -366.42,-571.837c-101.167,-210.969 -177.042,-436.127 -227.625,-675.472c-50.583,-239.345 -75.875,-493.495 -75.875,-762.449c0,-436.743 63.538,-827.838 190.613,-1173.29c127.075,-345.446 309.051,-640.926 545.928,-886.44c236.878,-245.514 514.469,-432.425 832.773,-560.734c318.305,-128.309 657.582,-192.463 1017.83,-192.463c439.21,0 830.305,87.595 1173.28,262.786c342.979,175.191 605.765,391.712 788.358,649.563c182.594,257.851 273.89,501.514 273.89,730.989c0,125.842 -44.414,236.878 -133.244,333.11c-88.829,96.231 -196.164,144.347 -322.005,144.347c-140.646,-0 -246.131,-33.311 -316.454,-99.933c-70.323,-66.622 -148.665,-181.359 -235.027,-344.213c-143.113,-268.954 -311.518,-470.054 -505.215,-603.297c-193.697,-133.244 -432.425,-199.866 -716.185,-199.866c-451.548,0 -811.182,171.49 -1078.9,514.469c-267.721,342.979 -401.582,830.305 -401.582,1461.98c0,421.938 59.22,772.936 177.658,1053c118.439,280.058 286.227,489.177 503.365,627.355c217.138,138.179 471.288,207.268 762.45,207.268c315.837,0 582.941,-78.342 801.313,-235.027c218.371,-156.685 383.075,-386.777 494.111,-690.276c46.882,-143.114 104.868,-259.702 173.957,-349.765c69.09,-90.062 180.126,-135.094 333.11,-135.094c130.776,0 243.046,45.648 336.81,136.945c93.764,91.297 140.646,204.8 140.646,340.512Z" style="fill:#0b48cb;fill-rule:nonzero;"/><path d="M84667.6,64346.5c562.584,0 1045.59,114.121 1449.03,342.362c403.432,228.242 708.782,552.715 916.05,973.419c207.268,420.705 310.902,914.816 310.902,1482.34c-0,419.471 -56.752,800.695 -170.256,1143.67c-113.504,342.979 -283.76,640.31 -510.768,891.993c-227.007,251.682 -505.832,444.145 -836.474,577.389c-330.641,133.243 -709.399,199.865 -1136.27,199.865c-424.406,0 -804.397,-68.472 -1139.97,-205.417c-335.577,-136.945 -615.635,-330.025 -840.176,-579.24c-224.54,-249.215 -394.179,-549.013 -508.916,-899.394c-114.738,-350.382 -172.107,-729.139 -172.107,-1136.27c0,-417.003 59.837,-799.462 179.509,-1147.38c119.673,-347.914 293.013,-644.011 520.02,-888.291c227.008,-244.28 503.365,-431.191 829.072,-560.733c325.707,-129.543 695.828,-194.314 1110.36,-194.314Zm1561.91,2790.71c-0,-397.263 -64.155,-741.476 -192.464,-1032.64c-128.308,-291.162 -311.518,-511.384 -549.63,-660.666c-238.111,-149.283 -511.384,-223.924 -819.818,-223.924c-219.605,0 -422.555,41.33 -608.85,123.991c-186.294,82.66 -346.68,202.95 -481.157,360.868c-134.478,157.918 -240.579,359.635 -318.305,605.148c-77.725,245.514 -116.588,521.254 -116.588,827.221c0,308.435 38.863,587.259 116.588,836.474c77.726,249.215 187.529,455.866 329.408,619.953c141.88,164.088 304.734,286.844 488.56,368.271c183.827,81.427 385.543,122.14 605.149,122.14c281.292,0 539.76,-70.323 775.404,-210.969c235.644,-140.646 423.172,-357.784 562.584,-651.413c139.412,-293.63 209.119,-655.115 209.119,-1084.46Z" style="fill:#0b48cb;fill-rule:nonzero;"/><path d="M90670.9,64346.5c562.584,0 1045.59,114.121 1449.02,342.362c403.432,228.242 708.783,552.715 916.05,973.419c207.268,420.705 310.902,914.816 310.902,1482.34c0,419.471 -56.752,800.695 -170.255,1143.67c-113.504,342.979 -283.76,640.31 -510.768,891.993c-227.008,251.682 -505.832,444.145 -836.474,577.389c-330.642,133.243 -709.399,199.865 -1136.27,199.865c-424.406,0 -804.397,-68.472 -1139.97,-205.417c-335.576,-136.945 -615.635,-330.025 -840.175,-579.24c-224.54,-249.215 -394.179,-549.013 -508.917,-899.394c-114.737,-350.382 -172.106,-729.139 -172.106,-1136.27c0,-417.003 59.836,-799.462 179.509,-1147.38c119.672,-347.914 293.013,-644.011 520.02,-888.291c227.008,-244.28 503.365,-431.191 829.072,-560.733c325.707,-129.543 695.828,-194.314 1110.36,-194.314Zm1561.91,2790.71c0,-397.263 -64.154,-741.476 -192.463,-1032.64c-128.308,-291.162 -311.518,-511.384 -549.63,-660.666c-238.111,-149.283 -511.384,-223.924 -819.818,-223.924c-219.606,0 -422.555,41.33 -608.85,123.991c-186.294,82.66 -346.68,202.95 -481.158,360.868c-134.477,157.918 -240.578,359.635 -318.304,605.148c-77.725,245.514 -116.588,521.254 -116.588,827.221c0,308.435 38.863,587.259 116.588,836.474c77.726,249.215 187.528,455.866 329.408,619.953c141.88,164.088 304.733,286.844 488.56,368.271c183.827,81.427 385.543,122.14 605.148,122.14c281.293,0 539.761,-70.323 775.404,-210.969c235.644,-140.646 423.172,-357.784 562.585,-651.413c139.412,-293.63 209.118,-655.115 209.118,-1084.46Z" style="fill:#0b48cb;fill-rule:nonzero;"/><path d="M95393.7,65012.7l-0,1902.42l2157.81,-2250.34c103.634,-108.569 191.846,-188.761 264.636,-240.578c72.791,-51.817 169.639,-77.726 290.546,-77.726c157.918,0 285.61,46.265 383.075,138.796c97.465,92.53 146.198,205.417 146.198,338.66c0,160.386 -82.66,319.538 -247.981,477.457l-1336.14,1265.82l1539.7,2205.92c108.569,152.984 189.996,286.844 244.281,401.582c54.284,114.737 81.426,226.391 81.426,334.96c0,120.906 -47.499,225.774 -142.496,314.603c-94.998,88.829 -223.924,133.243 -386.777,133.243c-152.984,0 -277.591,-32.694 -373.823,-98.082c-96.231,-65.388 -177.658,-152.366 -244.28,-260.935c-66.622,-108.569 -125.841,-207.268 -177.658,-296.097l-1299.13,-1998.65l-899.394,862.382l-0,1121.47c-0,227.008 -51.817,395.413 -155.451,505.215c-103.634,109.803 -236.878,164.704 -399.731,164.704c-93.764,0 -183.827,-24.675 -270.189,-74.024c-86.361,-49.349 -152.983,-115.971 -199.865,-199.865c-34.545,-69.09 -55.518,-149.283 -62.921,-240.579c-7.402,-91.297 -11.103,-223.307 -11.103,-396.03l-0,-4034.32c-0,-222.072 48.732,-388.627 146.198,-499.663c97.465,-111.037 230.092,-166.555 397.88,-166.555c165.321,0 299.181,54.901 401.582,164.704c102.4,109.803 153.6,276.974 153.6,501.514Z" style="fill:#0b48cb;fill-rule:nonzero;"/><path d="M99942.5,69287.6l0,-4274.9c0,-222.072 50.583,-388.627 151.75,-499.663c101.166,-111.037 231.942,-166.555 392.328,-166.555c165.321,0 299.182,54.901 401.582,164.704c102.4,109.803 153.6,276.974 153.6,501.514l0,4274.9c0,224.54 -51.2,392.328 -153.6,503.365c-102.4,111.036 -236.261,166.554 -401.582,166.554c-157.918,0 -288.077,-56.135 -390.478,-168.405c-102.4,-112.27 -153.6,-279.441 -153.6,-501.514Z" style="fill:#0b48cb;fill-rule:nonzero;"/><path d="M103703,65005.3l2113.39,3197.85l0,-3227.46c0,-209.735 45.032,-367.037 135.095,-471.904c90.063,-104.868 211.586,-157.302 364.569,-157.302c157.919,0 282.526,52.434 373.823,157.302c91.296,104.867 136.944,262.169 136.944,471.904l0,4267.5c0,476.223 -197.398,714.334 -592.194,714.334c-98.699,0 -187.528,-14.188 -266.487,-42.564c-78.959,-28.376 -152.983,-73.407 -222.073,-135.094c-69.089,-61.687 -133.243,-133.86 -192.463,-216.521c-59.219,-82.66 -118.438,-167.171 -177.658,-253.533l-2061.57,-3160.84l-0,3179.34c-0,207.268 -48.116,363.953 -144.348,470.054c-96.231,106.102 -219.605,159.152 -370.121,159.152c-155.451,0 -280.058,-53.667 -373.822,-161.002c-93.764,-107.336 -140.646,-263.403 -140.646,-468.204l-0,-4186.07c-0,-177.658 19.739,-317.071 59.219,-418.237c46.882,-111.037 124.608,-201.716 233.176,-272.039c108.569,-70.323 225.774,-105.485 351.616,-105.485c98.699,0 183.21,16.039 253.533,48.116c70.323,32.077 132.01,75.258 185.06,129.542c53.051,54.285 107.335,124.608 162.854,210.969c55.518,86.362 112.887,176.425 172.106,270.189Z" style="fill:#0b48cb;fill-rule:nonzero;"/><path d="M112986,67659.1l0,1040.04c0,138.179 -13.571,248.598 -40.713,331.259c-27.142,82.66 -77.109,157.301 -149.899,223.923c-72.791,66.622 -165.938,130.776 -279.442,192.463c-328.174,177.658 -644.011,307.201 -947.51,388.627c-303.5,81.427 -634.141,122.14 -991.925,122.14c-417.003,0 -796.995,-64.154 -1139.97,-192.463c-342.979,-128.308 -635.374,-314.603 -877.187,-558.883c-241.813,-244.28 -427.49,-540.377 -557.033,-888.291c-129.542,-347.914 -194.313,-736.541 -194.313,-1165.88c-0,-421.938 62.92,-808.098 188.762,-1158.48c125.841,-350.382 310.901,-647.713 555.182,-891.993c244.28,-244.28 541.61,-431.191 891.992,-560.733c350.381,-129.543 747.645,-194.314 1191.79,-194.314c365.187,0 688.426,48.733 969.718,146.198c281.292,97.465 509.533,220.222 684.724,368.271c175.191,148.048 307.201,304.733 396.03,470.054c88.829,165.32 133.244,312.135 133.244,440.444c-0,138.178 -51.2,256 -153.601,353.466c-102.4,97.465 -225.157,146.198 -368.27,146.198c-78.96,-0 -154.834,-18.506 -227.625,-55.519c-72.79,-37.012 -133.86,-88.829 -183.21,-155.451c-135.711,-212.202 -250.449,-372.588 -344.213,-481.157c-93.764,-108.569 -220.222,-199.866 -379.374,-273.89c-159.152,-74.024 -362.102,-111.036 -608.85,-111.036c-254.149,-0 -481.157,43.797 -681.023,131.393c-199.865,87.595 -370.738,214.67 -512.618,381.225c-141.879,166.554 -250.448,370.738 -325.706,612.55c-75.258,241.813 -112.887,509.534 -112.887,803.163c-0,636.609 146.198,1126.4 438.593,1469.38c292.396,342.979 700.147,514.468 1223.25,514.468c254.15,0 492.878,-33.31 716.185,-99.932c223.306,-66.622 449.697,-161.62 679.172,-284.994l0,-880.888l-851.279,-0c-204.8,-0 -359.634,-30.844 -464.502,-92.531c-104.867,-61.686 -157.301,-166.554 -157.301,-314.603c-0,-120.906 43.797,-220.839 131.393,-299.798c87.595,-78.959 206.651,-118.439 357.167,-118.439l1247.31,0c152.984,0 282.526,13.571 388.628,40.714c106.101,27.142 191.846,87.595 257.234,181.359c65.388,93.764 98.082,234.41 98.082,421.938Z" style="fill:#0b48cb;fill-rule:nonzero;"/></g></g></g></g></svg>