<?xml version="1.0" encoding="UTF-8" standalone="no"?><!DOCTYPE svg PUBLIC "-//W3C//DTD SVG 1.1//EN" "http://www.w3.org/Graphics/SVG/1.1/DTD/svg11.dtd"><svg width="100%" height="100%" viewBox="0 0 33334 18750" version="1.1" xmlns="http://www.w3.org/2000/svg" xmlns:xlink="http://www.w3.org/1999/xlink" xml:space="preserve" xmlns:serif="http://www.serif.com/" style="fill-rule:evenodd;clip-rule:evenodd;stroke-linejoin:round;stroke-miterlimit:2;"><g><g><g><g id="g1750"><g id="g1663"><path id="path826" d="M14891.4,6080.75c-2429.22,237.862 -4232.46,2432.53 -3994.6,4861.75c11.779,115.166 28.046,229.829 48.767,343.729c-69.867,-2324.81 1694.36,-4332.17 4008.89,-4561.38c2298.76,-224.296 4409.42,1376.73 4813,3650.86c-1.383,-100.25 -6.15,-200.429 -14.295,-300.358c-0,-0.004 -0.005,-0.004 -0.005,-0.008c-237.845,-2429.23 -2432.52,-4232.46 -4861.75,-3994.62l-0.012,-0l-0.004,0.025Z" style="fill:#ffcd0e;stroke:#7f6d43;stroke-width:41.81px;"/><path id="path839" d="M24263.8,6841.92l-4135.8,2157.18l-416.041,-1137.86l4551.84,-1019.33Z" style="fill:#ffcd0e;stroke:#7f6d43;stroke-width:41.81px;"/><path id="path841" d="M19015.7,1960.16l-679.8,2231.02l-679.8,2231.02l-1103.25,-500.646l1231.43,-1980.7l1231.42,-1980.7Z" style="fill:#ffcd0e;stroke:#7f6d43;stroke-width:41.81px;"/><path id="path843" d="M9978.49,2813.26l1596.81,1699.94l1596.81,1699.93l-983.292,707.779l-1105.16,-2053.82l-1105.16,-2053.82Z" style="fill:#ffcd0e;stroke:#7f6d43;stroke-width:41.81px;"/><path id="path845" d="M5624.11,8601.04l2330.94,79.209l2330.94,79.204l-99.02,597.621l-99.021,597.616l-4463.84,-1353.65Z" style="fill:#ffcd0e;stroke:#7f6d43;stroke-width:41.81px;"/><path id="path847" d="M9512.11,6364.34l1050.48,471.117l1050.49,471.116l-769.129,936.084l-1331.84,-1878.32Z" style="fill:#ffcd0e;stroke:#7f6d43;stroke-width:41.81px;"/><path id="path849" d="M14648.5,3599.72l819.35,2151.87l-1205.77,118.058l386.417,-2269.93Z" style="fill:#ffcd0e;stroke:#7f6d43;stroke-width:41.81px;"/><path id="path851" d="M20201.6,5441.63l-505.992,1034.14l-505.991,1034.14l-909.834,-800.013l1921.82,-1268.27Z" style="fill:#ffcd0e;stroke:#7f6d43;stroke-width:41.81px;"/></g></g><g><g id="g1501"><g id="g1233"><path id="path1214" d="M25525.9,7345.5c269.883,259.758 393.079,508.495 434.721,750.97c51.195,298.121 -21.217,587.875 -99.917,876.859c-78.7,288.983 -163.7,577.1 -134.396,871.575c16.913,169.933 72.525,341.704 188.583,516.208c-284.708,-269.692 -398.133,-529.237 -423.608,-785.258c-28.783,-289.213 55.1,-574.9 133.871,-864.15c78.775,-289.254 152.479,-582.321 100.354,-885.85c-27.017,-157.338 -88.442,-317.188 -199.608,-480.354Z" style="fill:#0055d4;fill-rule:nonzero;"/><path id="path1229" d="M26075.1,7570.84c269.888,259.754 393.084,508.496 434.725,750.971c51.192,298.121 -21.216,587.875 -99.916,876.858c-78.7,288.983 -163.7,577.1 -134.396,871.575c16.908,169.929 72.521,341.7 188.583,516.204c-284.712,-269.687 -398.133,-529.233 -423.612,-785.254c-28.779,-289.212 55.1,-574.9 133.875,-864.15c78.775,-289.254 152.475,-582.321 100.354,-885.85c-27.021,-157.337 -88.442,-317.192 -199.613,-480.354Z" style="fill:#0055d4;fill-rule:nonzero;"/></g><g id="g1477"><g id="g1271"><path id="path1251" d="M28175.7,11389.1c-263.579,0.045 -477.604,213.012 -478.967,476.583c155.455,-92.004 253.846,-256.671 430.084,-261.467c172.796,-0.016 312.879,140.054 312.883,312.846c-0.071,93.217 -41.742,181.538 -113.608,240.9l78.866,130.813c153.975,-83.909 249.8,-245.242 249.821,-420.596c0.013,-264.592 -214.487,-479.092 -479.079,-479.079Z" style="fill:#0055d4;"/><path id="path1261" d="M27513.1,12878.1c611.767,-526.025 802.292,-699.204 826.892,-718.696c13.175,-10.442 79.154,110.229 79.154,110.229l-906.046,608.467Z" style="fill:#0055d4;fill-rule:nonzero;stroke:#0055d4;stroke-width:19.38px;stroke-linejoin:miter;stroke-miterlimit:4;"/></g><path id="path1265" d="M25065.4,11183.7l2695.28,0" style="fill:none;fill-rule:nonzero;stroke:#0055d4;stroke-width:327.13px;stroke-linejoin:miter;stroke-miterlimit:4;"/><path id="path1267" d="M26954.7,13497.4c222.625,-715.491 617.513,-1389.62 391.796,-2164.3l403.775,4.279c41.159,843.221 -448.062,1469.48 -795.571,2160.02Z" style="fill:#0055d4;fill-rule:nonzero;stroke:#0055d4;stroke-width:19.38px;stroke-linejoin:miter;stroke-miterlimit:4;"/><path id="path1273" d="M25051,13744.1l3060.2,-0l-491.367,147.783l-2318.81,0l-250.016,-147.783Z" style="fill:#0055d4;fill-rule:nonzero;"/></g></g><g><text x="4902.03px" y="10289.8px" style="font-family:'BaskOldFace', 'Baskerville Old Face', serif;font-size:1348.76px;stroke:#0055d4;stroke-width:1.75px;">THE</text><g><text x="7823.53px" y="13213.6px" style="font-family:'BaskOldFace', 'Baskerville Old Face', serif;font-size:2397.39px;">OUNTRY</text><text x="4417.4px" y="14271.8px" style="font-family:'BaskOldFace', 'Baskerville Old Face', serif;font-size:5570.38px;">C</text><g><text x="22058.7px" y="13213px" style="font-family:'BaskOldFace', 'Baskerville Old Face', serif;font-size:2397.39px;">AFE</text><text x="18395.7px" y="14271.8px" style="font-family:'BaskOldFace', 'Baskerville Old Face', serif;font-size:5570.38px;">C</text></g></g></g></g></g><g><text x="6127.99px" y="16767.6px" style="font-family:'ArialRoundedMTBold', 'Arial Rounded MT Bold', sans-serif;font-size:1819.22px;fill:#0b48cb;">GOOD HOME COOKING</text></g></g></g></svg>