<?xml version="1.0" encoding="UTF-8" standalone="no"?><!DOCTYPE svg PUBLIC "-//W3C//DTD SVG 1.1//EN" "http://www.w3.org/Graphics/SVG/1.1/DTD/svg11.dtd"><svg width="100%" height="100%" viewBox="0 0 8000 4500" version="1.1" xmlns="http://www.w3.org/2000/svg" xmlns:xlink="http://www.w3.org/1999/xlink" xml:space="preserve" xmlns:serif="http://www.serif.com/" style="fill-rule:evenodd;clip-rule:evenodd;stroke-linejoin:round;stroke-miterlimit:2;"><g><g><g><g id="g1750"><g id="g1663"><path id="path826" d="M3573.94,1183.74c-583.014,57.087 -1015.79,583.808 -958.703,1166.82c2.827,27.64 6.731,55.159 11.704,82.495c-16.768,-557.954 406.646,-1039.72 962.135,-1094.73c551.701,-53.831 1058.26,330.415 1155.12,876.207c-0.332,-24.06 -1.476,-48.103 -3.431,-72.086c-0,-0.001 -0.001,-0.001 -0.001,-0.002c-57.083,-583.016 -583.804,-1015.79 -1166.82,-958.71c-0.001,0 -0.002,0 -0.003,0Z" style="fill:#fff;stroke:#fff;stroke-width:41.67px;"/><path id="path839" d="M5823.32,1366.42l-496.296,258.862l-496.296,258.862l-99.85,-273.086l546.221,-122.319l546.221,-122.319Z" style="fill:#fff;stroke:#fff;stroke-width:41.67px;"/><path id="path841" d="M4563.76,194.799l-163.152,535.445l-163.152,535.444l-264.781,-120.155l295.543,-475.367l295.542,-475.367Z" style="fill:#fff;stroke:#fff;stroke-width:41.67px;"/><path id="path843" d="M2394.84,399.542l383.234,407.985l383.233,407.984l-235.99,169.867l-265.238,-492.918l-265.239,-492.918Z" style="fill:#fff;stroke:#fff;stroke-width:41.67px;"/><path id="path845" d="M1349.79,1788.61l559.426,19.01l559.426,19.009l-23.765,143.429l-23.765,143.428l-535.661,-162.438l-535.661,-162.438Z" style="fill:#fff;stroke:#fff;stroke-width:41.67px;"/><path id="path847" d="M2282.91,1251.8l252.116,113.068l252.117,113.068l-184.591,224.66l-159.821,-225.398l-159.821,-225.398Z" style="fill:#fff;stroke:#fff;stroke-width:41.67px;"/><path id="path849" d="M3515.64,588.292l98.322,258.224l98.322,258.224l-289.384,28.334l46.37,-272.391l46.37,-272.391Z" style="fill:#fff;stroke:#fff;stroke-width:41.67px;"/><path id="path851" d="M4848.39,1030.35l-121.438,248.194l-121.438,248.193l-218.36,-192.003l230.618,-152.192l230.618,-152.192Z" style="fill:#fff;stroke:#fff;stroke-width:41.67px;"/></g><g id="g1705"></g></g><g><g id="g1501"><g id="g1233"><path id="path1214" d="M6126.22,1487.28c64.772,62.342 94.339,122.039 104.333,180.233c12.287,71.549 -5.092,141.09 -23.98,210.446c-18.888,69.356 -39.288,138.504 -32.255,209.178c4.059,40.784 17.406,82.009 45.26,123.89c-68.33,-64.726 -95.552,-127.017 -101.666,-188.462c-6.908,-69.411 13.224,-137.976 32.129,-207.396c18.906,-69.421 36.595,-139.757 24.085,-212.604c-6.484,-37.761 -21.226,-76.125 -47.906,-115.285Z" style="fill:#fff;fill-rule:nonzero;stroke:#fff;stroke-width:41.67px;"/><path id="path1229" d="M6258.02,1541.36c64.773,62.341 94.34,122.039 104.334,180.233c12.286,71.549 -5.092,141.09 -23.98,210.446c-18.888,69.356 -39.288,138.504 -32.255,209.178c4.058,40.783 17.405,82.008 45.26,123.889c-68.331,-64.725 -95.552,-127.016 -101.667,-188.461c-6.907,-69.411 13.224,-137.976 32.13,-207.396c18.906,-69.421 36.594,-139.757 24.085,-212.604c-6.485,-37.761 -21.226,-76.126 -47.907,-115.285Z" style="fill:#fff;fill-rule:nonzero;stroke:#fff;stroke-width:41.67px;"/></g><g id="g1477"><g id="g1271"><path id="path1251" d="M6762.18,2457.75c-63.259,0.011 -114.625,51.123 -114.952,114.38c37.309,-22.081 60.923,-61.601 103.22,-62.752c41.471,-0.004 75.091,33.613 75.092,75.083c-0.017,22.372 -10.018,43.569 -27.266,57.816l18.928,31.395c36.954,-20.138 59.952,-58.858 59.957,-100.943c0.003,-63.502 -51.477,-114.982 -114.979,-114.979Z" style="fill:#fff;stroke:#fff;stroke-width:41.67px;"/><path id="path1261" d="M6603.14,2815.1c146.824,-126.246 192.55,-167.809 198.454,-172.487c3.162,-2.506 18.997,26.455 18.997,26.455l-217.451,146.032Z" style="fill:#fff;fill-rule:nonzero;stroke:#fff;stroke-width:41.67px;stroke-linejoin:miter;stroke-miterlimit:4;"/></g><rect x="6012.25" y="2375.22" width="648.4" height="69.083" style="fill:#fff;stroke:#fff;stroke-width:41.67px;stroke-linecap:square;stroke-miterlimit:1.5;"/><path id="path1267" d="M6469.13,2963.74c53.43,-171.718 148.203,-333.509 94.031,-519.432l96.906,1.027c9.878,202.373 -107.535,352.675 -190.937,518.405Z" style="fill:#fff;fill-rule:nonzero;stroke:#fff;stroke-width:41.67px;stroke-linejoin:miter;stroke-miterlimit:4;"/><path id="path1273" d="M6012.25,3022.94l734.447,-0l-117.928,35.468l-556.515,0l-60.004,-35.468Z" style="fill:#fff;fill-rule:nonzero;stroke:#fff;stroke-width:41.67px;"/></g></g><g><text x="1176.49px" y="2193.9px" style="font-family:'BaskOldFace', 'Baskerville Old Face', serif;font-size:323.703px;fill:#fff;stroke:#fff;stroke-width:41.67px;">THE</text><g><text x="1877.65px" y="2895.63px" style="font-family:'BaskOldFace', 'Baskerville Old Face', serif;font-size:575.374px;fill:#fff;stroke:#fff;stroke-width:41.67px;">OUNTRY</text><text x="1060.18px" y="3149.6px" style="font-family:'BaskOldFace', 'Baskerville Old Face', serif;font-size:1336.89px;fill:#fff;stroke:#fff;stroke-width:41.67px;">C</text><g><text x="5294.08px" y="2895.49px" style="font-family:'BaskOldFace', 'Baskerville Old Face', serif;font-size:575.374px;fill:#fff;stroke:#fff;stroke-width:41.67px;">AFE</text><text x="4414.96px" y="3149.6px" style="font-family:'BaskOldFace', 'Baskerville Old Face', serif;font-size:1336.89px;fill:#fff;stroke:#fff;stroke-width:41.67px;">C</text></g></g></g></g></g><g><path id="rect910" d="M6660.99,3468.25c0,-68.479 -55.596,-124.076 -124.076,-124.076l-5073.82,0c-68.48,0 -124.076,55.597 -124.076,124.076l-0,248.151c-0,68.48 55.596,124.076 124.076,124.076l5073.82,-0c68.48,-0 124.076,-55.596 124.076,-124.076l0,-248.151Z" style="fill:#fff;stroke:#fff;stroke-width:41.67px;stroke-linecap:round;"/><text x="1470.72px" y="3748.59px" style="font-family:'ArialRoundedMTBold', 'Arial Rounded MT Bold', sans-serif;font-size:436.612px;fill:#fff;stroke:#fff;stroke-width:41.67px;">GOOD HOME COOKING</text></g><path id="rect9101" serif:id="rect910" d="M6081.1,4476.74c-0,-4.28 -3.475,-7.755 -7.754,-7.755l-4146.69,0c-4.279,0 -7.754,3.475 -7.754,7.755l0,15.509c0,4.279 3.475,7.754 7.754,7.754l4146.69,0c4.279,0 7.754,-3.475 7.754,-7.754l-0,-15.509Z" style="fill:#fff;stroke:#fff;stroke-width:41.67px;stroke-linecap:round;"/><text x="1421.86px" y="4232.97px" style="font-family:'ArialMT', 'Arial', sans-serif;font-size:302.355px;fill:#fff;stroke:#fff;stroke-width:41.67px;">Good Home Cooking family restaurant</text></g><g><g><g id="g17501" serif:id="g1750"><g id="g16631" serif:id="g1663"><path id="path8261" serif:id="path826" d="M3573.94,1183.74c-583.014,57.087 -1015.79,583.808 -958.703,1166.82c2.827,27.64 6.731,55.159 11.704,82.495c-16.768,-557.954 406.646,-1039.72 962.135,-1094.73c551.701,-53.831 1058.26,330.415 1155.12,876.207c-0.332,-24.06 -1.476,-48.103 -3.431,-72.086c-0,-0.001 -0.001,-0.001 -0.001,-0.002c-57.083,-583.016 -583.804,-1015.79 -1166.82,-958.71c-0.001,0 -0.002,0 -0.003,0Z" style="fill:#fc0;"/><path id="path8391" serif:id="path839" d="M5823.32,1366.42l-496.296,258.862l-496.296,258.862l-99.85,-273.086l546.221,-122.319l546.221,-122.319Z" style="fill:#fc0;"/><path id="path8411" serif:id="path841" d="M4563.76,194.799l-163.152,535.445l-163.152,535.444l-264.781,-120.155l295.543,-475.367l295.542,-475.367Z" style="fill:#fc0;"/><path id="path8431" serif:id="path843" d="M2394.84,399.542l383.234,407.985l383.233,407.984l-235.99,169.867l-265.238,-492.918l-265.239,-492.918Z" style="fill:#fc0;"/><path id="path8451" serif:id="path845" d="M1349.79,1788.61l559.426,19.01l559.426,19.009l-23.765,143.429l-23.765,143.428l-535.661,-162.438l-535.661,-162.438Z" style="fill:#fc0;"/><path id="path8471" serif:id="path847" d="M2282.91,1251.8l252.116,113.068l252.117,113.068l-184.591,224.66l-159.821,-225.398l-159.821,-225.398Z" style="fill:#fc0;"/><path id="path8491" serif:id="path849" d="M3515.64,588.292l98.322,258.224l98.322,258.224l-289.384,28.334l46.37,-272.391l46.37,-272.391Z" style="fill:#fc0;"/><path id="path8511" serif:id="path851" d="M4848.39,1030.35l-121.438,248.194l-121.438,248.193l-218.36,-192.003l230.618,-152.192l230.618,-152.192Z" style="fill:#fc0;"/></g><g id="g17051" serif:id="g1705"></g></g><g><g id="g15011" serif:id="g1501"><g id="g12331" serif:id="g1233"><path id="path12141" serif:id="path1214" d="M6126.22,1487.28c64.772,62.342 94.339,122.039 104.333,180.233c12.287,71.549 -5.092,141.09 -23.98,210.446c-18.888,69.356 -39.288,138.504 -32.255,209.178c4.059,40.784 17.406,82.009 45.26,123.89c-68.33,-64.726 -95.552,-127.017 -101.666,-188.462c-6.908,-69.411 13.224,-137.976 32.129,-207.396c18.906,-69.421 36.595,-139.757 24.085,-212.604c-6.484,-37.761 -21.226,-76.125 -47.906,-115.285Z" style="fill:#0055d4;fill-rule:nonzero;"/><path id="path12291" serif:id="path1229" d="M6258.02,1541.36c64.773,62.341 94.34,122.039 104.334,180.233c12.286,71.549 -5.092,141.09 -23.98,210.446c-18.888,69.356 -39.288,138.504 -32.255,209.178c4.058,40.783 17.405,82.008 45.26,123.889c-68.331,-64.725 -95.552,-127.016 -101.667,-188.461c-6.907,-69.411 13.224,-137.976 32.13,-207.396c18.906,-69.421 36.594,-139.757 24.085,-212.604c-6.485,-37.761 -21.226,-76.126 -47.907,-115.285Z" style="fill:#0055d4;fill-rule:nonzero;"/></g><g id="g14771" serif:id="g1477"><g id="g12711" serif:id="g1271"><path id="path12511" serif:id="path1251" d="M6762.18,2457.75c-63.259,0.011 -114.625,51.123 -114.952,114.38c37.309,-22.081 60.923,-61.601 103.22,-62.752c41.471,-0.004 75.091,33.613 75.092,75.083c-0.017,22.372 -10.018,43.569 -27.266,57.816l18.928,31.395c36.954,-20.138 59.952,-58.858 59.957,-100.943c0.003,-63.502 -51.477,-114.982 -114.979,-114.979Z" style="fill:#0055d4;"/><path id="path12611" serif:id="path1261" d="M6603.14,2815.1c146.824,-126.246 192.55,-167.809 198.454,-172.487c3.162,-2.506 18.997,26.455 18.997,26.455l-217.451,146.032Z" style="fill:#0055d4;fill-rule:nonzero;stroke:#0055d4;stroke-width:4.65px;stroke-linejoin:miter;stroke-miterlimit:4;"/></g><path id="path1265" d="M6015.69,2408.44l646.868,0" style="fill:none;fill-rule:nonzero;stroke:#0055d4;stroke-width:78.51px;stroke-linejoin:miter;stroke-miterlimit:4;"/><path id="path12671" serif:id="path1267" d="M6469.13,2963.74c53.43,-171.718 148.203,-333.509 94.031,-519.432l96.906,1.027c9.878,202.373 -107.535,352.675 -190.937,518.405Z" style="fill:#0055d4;fill-rule:nonzero;stroke:#0055d4;stroke-width:4.65px;stroke-linejoin:miter;stroke-miterlimit:4;"/><path id="path12731" serif:id="path1273" d="M6012.25,3022.94l734.447,-0l-117.928,35.468l-556.515,0l-60.004,-35.468Z" style="fill:#0055d4;fill-rule:nonzero;"/></g></g><g><text x="1176.49px" y="2193.9px" style="font-family:'BaskOldFace', 'Baskerville Old Face', serif;font-size:323.703px;stroke:#0055d4;stroke-width:0.42px;">THE</text><g><text x="1877.65px" y="2895.63px" style="font-family:'BaskOldFace', 'Baskerville Old Face', serif;font-size:575.374px;">OUNTRY</text><text x="1060.18px" y="3149.6px" style="font-family:'BaskOldFace', 'Baskerville Old Face', serif;font-size:1336.89px;">C</text><g><text x="5294.08px" y="2895.49px" style="font-family:'BaskOldFace', 'Baskerville Old Face', serif;font-size:575.374px;">AFE</text><text x="4414.96px" y="3149.6px" style="font-family:'BaskOldFace', 'Baskerville Old Face', serif;font-size:1336.89px;">C</text></g></g></g></g></g><g><path id="rect9102" serif:id="rect910" d="M6660.99,3468.25c0,-68.479 -55.596,-124.076 -124.076,-124.076l-5073.82,0c-68.48,0 -124.076,55.597 -124.076,124.076l-0,248.151c-0,68.48 55.596,124.076 124.076,124.076l5073.82,-0c68.48,-0 124.076,-55.596 124.076,-124.076l0,-248.151Z" style="fill:#fff200;"/><text x="1470.72px" y="3748.59px" style="font-family:'ArialRoundedMTBold', 'Arial Rounded MT Bold', sans-serif;font-size:436.612px;">GOOD HOME COOKING</text></g><path id="rect9103" serif:id="rect910" d="M6081.1,4476.74c-0,-4.28 -3.475,-7.755 -7.754,-7.755l-4146.69,0c-4.279,0 -7.754,3.475 -7.754,7.755l0,15.509c0,4.279 3.475,7.754 7.754,7.754l4146.69,0c4.279,0 7.754,-3.475 7.754,-7.754l-0,-15.509Z"/><text x="1421.86px" y="4232.97px" style="font-family:'ArialMT', 'Arial', sans-serif;font-size:302.355px;">Good Home Cooking family restaurant</text></g></g></svg>